P3
# CREATOR: GIMP PNM Filter Version 1.1
16 8
255
0
0
0
0
0
0
0
0
0
0
0
0
0
0
0
0
0
0
0
0
0
0
0
0
0
0
0
0
0
0
0
0
0
0
0
0
0
0
0
0
0
0
0
0
0
0
0
0
0
0
0
255
0
0
255
0
0
255
0
0
255
0
0
255
0
0
255
0
0
0
0
0
0
0
0
157
157
157
0
0
0
0
0
0
0
0
0
0
0
0
56
154
255
0
0
0
0
0
0
255
0
0
255
255
255
255
0
0
255
0
0
255
0
0
255
0
0
0
0
0
0
0
0
157
157
157
0
0
0
0
0
0
0
0
0
56
154
255
0
0
0
0
0
0
0
0
0
255
0
0
255
0
0
255
0
0
255
0
0
255
0
0
255
0
0
0
0
0
0
0
0
157
157
157
56
154
255
0
0
0
56
154
255
0
0
0
0
0
0
0
0
0
0
0
0
255
0
0
255
0
0
255
0
0
255
0
0
255
0
0
255
0
0
0
0
0
0
0
0
56
154
255
0
0
0
56
154
255
0
0
0
0
0
0
0
0
0
0
0
0
0
0
0
255
0
0
255
0
0
255
0
0
255
0
0
255
255
255
255
0
0
0
0
0
0
0
0
157
157
157
0
0
0
0
0
0
0
0
0
0
0
0
0
0
0
0
0
0
0
0
0
255
0
0
255
0
0
255
0
0
255
0
0
255
0
0
255
0
0
0
0
0
0
0
0
157
157
157
157
157
157
157
157
157
157
157
157
157
157
157
157
157
157
0
0
0
0
0
0
0
0
0
0
0
0
0
0
0
0
0
0
0
0
0
0
0
0
0
0
0
0
0
0
0
0
0
0
0
0
0
0
0
0
0
0
0
0
0
0
0
0
0
0
0
