P3
# Created by GIMP version 2.10.8 PNM plug-in
64 40
255
0
0
0
0
0
0
0
0
0
0
0
0
0
0
0
0
0
0
0
0
0
0
0
0
0
0
0
0
0
0
0
0
0
255
0
0
0
0
0
0
0
0
0
0
0
0
0
0
0
0
0
255
0
0
0
0
0
0
0
0
0
0
0
255
0
0
0
0
0
0
0
0
0
0
0
0
0
0
0
0
0
0
0
0
0
0
0
0
0
0
0
0
0
0
0
0
0
0
0
0
0
0
0
0
0
0
0
0
0
0
0
0
0
0
0
0
0
0
0
0
0
0
0
0
0
0
0
0
0
0
0
0
0
0
0
0
0
0
0
0
0
0
0
0
0
0
0
0
0
0
0
0
0
0
0
0
0
0
0
0
0
0
0
0
0
0
0
0
0
0
0
0
0
0
0
0
0
0
0
0
0
0
0
0
0
0
0
0
0
0
0
0
0
0
0
0
0
0
0
0
0
255
0
0
255
0
0
255
0
0
0
0
0
0
0
0
0
0
0
0
0
0
0
0
0
0
0
0
255
0
0
0
0
0
0
0
0
0
0
0
0
0
0
0
0
0
255
0
0
255
0
0
255
0
0
0
0
0
0
0
0
0
0
0
0
0
0
0
0
0
255
0
0
255
0
0
255
0
0
0
0
0
0
0
0
0
0
0
0
0
0
0
0
0
0
0
0
255
0
0
255
0
0
255
0
0
0
0
0
0
0
0
0
0
0
0
0
0
255
0
0
0
0
0
0
0
0
255
0
0
0
0
0
0
0
0
0
0
0
0
0
0
255
0
0
0
0
0
0
0
0
0
0
0
0
0
0
0
0
0
0
0
0
0
0
0
0
0
0
0
0
0
0
0
0
0
0
0
0
0
0
0
0
0
0
0
0
0
0
0
255
0
0
0
0
0
0
0
0
0
0
0
255
0
0
0
0
0
0
0
0
0
0
0
0
0
0
0
0
0
0
0
0
255
0
0
0
0
0
0
0
0
0
0
0
0
0
0
255
0
0
0
0
0
255
0
0
0
0
0
0
0
0
0
0
0
0
0
0
0
0
0
255
0
0
0
0
0
255
0
0
0
0
0
0
0
0
0
0
0
0
0
0
0
0
0
0
0
0
0
0
0
255
0
0
255
0
0
0
0
0
0
0
0
0
0
0
0
0
0
0
0
0
255
0
0
0
0
0
255
0
0
0
0
0
0
0
0
0
0
0
255
0
0
255
0
0
255
0
0
255
0
0
0
0
0
0
0
0
0
0
0
0
0
0
0
0
0
0
0
0
0
0
0
0
0
0
0
0
0
0
0
0
0
0
0
0
0
0
0
0
0
255
0
0
0
0
0
255
0
0
0
0
0
255
0
0
0
0
0
0
0
0
0
0
0
0
0
0
0
0
0
0
0
0
255
0
0
0
0
0
0
0
0
0
0
0
0
0
0
255
0
0
255
0
0
255
0
0
0
0
0
0
0
0
0
0
0
0
0
0
0
0
0
255
0
0
255
0
0
255
0
0
0
0
0
0
0
0
0
0
0
0
0
0
255
0
0
255
0
0
255
0
0
0
0
0
255
0
0
0
0
0
0
0
0
0
0
0
0
0
0
0
0
0
255
0
0
0
0
0
255
0
0
0
0
0
0
0
0
0
0
0
0
0
0
255
0
0
0
0
0
0
0
0
0
0
0
0
0
0
0
0
0
0
0
0
0
0
0
0
0
0
0
0
0
0
0
0
0
0
0
0
0
0
0
0
0
0
0
0
0
0
0
255
0
0
0
0
0
0
0
0
0
0
0
255
0
0
0
0
0
0
0
0
0
0
0
0
0
0
0
0
0
0
0
0
255
0
0
0
0
0
0
0
0
0
0
0
0
0
0
0
0
0
255
0
0
0
0
0
0
0
0
0
0
0
0
0
0
0
0
0
0
0
0
0
0
0
255
0
0
0
0
0
0
0
0
0
0
0
0
0
0
0
0
0
255
0
0
0
0
0
255
0
0
0
0
0
0
0
0
0
0
0
0
0
0
0
0
0
0
0
0
255
0
0
0
0
0
0
0
0
255
0
0
0
0
0
0
0
0
0
0
0
0
0
0
255
0
0
0
0
0
255
0
0
255
0
0
0
0
0
0
0
0
0
0
0
0
0
0
0
0
0
0
0
0
0
0
0
0
0
0
0
0
0
0
0
0
0
0
0
0
0
0
0
0
0
255
0
0
255
0
0
255
0
0
0
0
0
0
0
0
0
0
0
0
0
0
0
0
0
0
0
0
255
0
0
0
0
0
0
0
0
0
0
0
0
0
0
0
0
0
255
0
0
255
0
0
255
0
0
0
0
0
0
0
0
0
0
0
0
0
0
0
0
0
255
0
0
255
0
0
255
0
0
0
0
0
0
0
0
0
0
0
0
0
0
255
0
0
255
0
0
255
0
0
0
0
0
0
0
0
0
0
0
0
0
0
0
0
0
0
0
0
255
0
0
255
0
0
255
0
0
255
0
0
255
0
0
0
0
0
0
0
0
0
0
0
255
0
0
255
0
0
0
0
0
0
0
0
255
0
0
0
0
0
0
0
0
0
0
0
0
0
0
0
0
0
0
0
0
0
0
0
0
0
0
0
0
0
0
0
0
0
0
0
0
0
0
0
0
0
0
0
0
0
0
0
0
0
0
0
0
0
0
0
0
0
0
0
0
0
0
255
0
0
0
0
0
0
0
0
0
0
0
0
0
0
0
0
0
0
0
0
0
0
0
255
0
0
0
0
0
0
0
0
0
0
0
0
0
0
0
0
0
0
0
0
0
0
0
255
0
0
0
0
0
0
0
0
0
0
0
0
0
0
0
0
0
0
0
0
0
0
0
0
0
0
0
0
0
0
0
0
0
0
0
0
0
0
0
0
0
0
0
0
0
0
0
0
0
0
0
0
0
255
0
0
0
0
0
0
0
0
0
0
0
0
0
0
0
0
0
0
0
0
0
0
0
0
0
0
255
0
0
0
0
0
0
0
0
0
0
0
0
0
0
0
0
0
0
0
0
0
0
0
0
0
0
0
0
0
0
0
0
0
0
0
0
0
0
0
0
0
0
0
0
0
0
0
0
0
0
0
0
0
0
0
0
0
0
0
0
0
0
0
0
0
0
0
0
0
0
0
0
0
0
0
0
0
0
0
0
0
0
0
0
0
0
0
0
0
0
0
0
0
0
0
0
0
0
0
0
0
0
0
0
0
0
0
0
0
0
0
0
0
0
0
0
0
0
0
0
0
0
0
0
0
0
0
0
0
0
0
0
0
0
0
0
0
0
0
0
0
0
0
0
0
0
0
0
0
0
0
0
0
0
0
0
0
0
0
0
0
0
0
0
0
0
0
0
0
0
0
0
0
0
0
0
0
0
0
0
0
0
0
0
0
0
0
0
255
0
0
0
0
0
0
0
0
0
0
0
0
0
0
0
0
0
0
0
0
0
0
0
0
0
0
0
0
0
0
0
0
0
0
0
0
0
0
0
0
0
0
0
0
0
0
0
0
0
0
0
0
0
0
0
0
0
0
0
0
0
0
0
0
0
0
0
0
0
0
0
0
0
0
0
0
0
0
0
0
0
0
0
0
0
0
0
0
0
0
0
0
0
0
0
0
0
0
0
0
0
0
0
0
0
0
0
0
0
0
0
0
0
0
0
0
0
0
0
0
0
0
0
0
0
0
0
0
0
0
0
0
0
0
0
0
0
0
0
0
0
0
0
0
0
0
0
0
0
0
0
0
0
0
0
0
0
0
0
0
0
0
0
0
0
0
0
0
0
0
0
0
0
0
0
0
0
0
0
0
0
0
0
0
0
0
0
0
0
0
0
0
0
0
0
0
0
0
0
0
0
0
0
0
0
0
0
0
0
0
0
0
0
0
0
0
0
0
0
0
0
0
0
0
0
0
0
0
0
0
99
0
0
204
0
0
99
0
0
58
0
0
0
0
0
0
0
0
0
0
0
0
0
0
99
0
0
204
0
0
99
0
0
58
0
0
0
0
0
0
0
0
0
0
0
0
0
0
99
0
0
99
0
0
99
0
0
58
0
0
0
0
0
0
0
0
0
0
0
0
0
0
99
0
0
99
0
0
99
0
0
58
0
0
0
0
0
0
0
0
0
0
0
0
0
0
99
0
0
99
0
0
99
0
0
58
0
0
0
0
0
0
0
0
0
0
0
0
0
0
58
0
0
99
0
0
99
0
0
58
0
0
0
0
0
0
0
0
0
0
0
0
0
0
58
0
0
99
0
0
99
0
0
58
0
0
0
0
0
0
0
0
0
0
0
0
0
0
58
0
0
99
0
0
99
0
0
58
0
0
0
0
0
0
0
0
0
0
0
99
0
0
204
0
0
204
0
0
0
0
0
58
0
0
58
0
0
0
0
0
0
0
0
99
0
0
204
0
0
204
0
0
0
0
0
58
0
0
58
0
0
0
0
0
0
0
0
99
0
0
204
0
0
0
0
0
0
0
0
58
0
0
58
0
0
0
0
0
0
0
0
99
0
0
204
0
0
0
0
0
0
0
0
58
0
0
58
0
0
0
0
0
0
0
0
99
0
0
204
0
0
0
0
0
0
0
0
58
0
0
58
0
0
0
0
0
0
0
0
99
0
0
58
0
0
0
0
0
0
0
0
58
0
0
58
0
0
0
0
0
0
0
0
99
0
0
58
0
0
0
0
0
0
0
0
58
0
0
58
0
0
0
0
0
0
0
0
99
0
0
58
0
0
0
0
0
0
0
0
58
0
0
58
0
0
0
0
0
0
0
0
204
0
0
204
0
0
204
0
0
0
0
0
0
0
0
99
0
0
0
0
0
0
0
0
204
0
0
204
0
0
204
0
0
0
0
0
0
0
0
99
0
0
0
0
0
0
0
0
204
0
0
204
0
0
0
0
0
0
0
0
0
0
0
99
0
0
0
0
0
0
0
0
204
0
0
204
0
0
0
0
0
0
0
0
0
0
0
99
0
0
0
0
0
0
0
0
204
0
0
204
0
0
0
0
0
0
0
0
0
0
0
99
0
0
0
0
0
0
0
0
204
0
0
0
0
0
0
0
0
0
0
0
0
0
0
99
0
0
0
0
0
0
0
0
204
0
0
0
0
0
0
0
0
0
0
0
0
0
0
99
0
0
0
0
0
0
0
0
204
0
0
0
0
0
0
0
0
0
0
0
0
0
0
99
0
0
0
0
0
0
0
0
204
0
0
204
0
0
204
0
0
0
0
0
0
0
0
99
0
0
0
0
0
0
0
0
204
0
0
204
0
0
204
0
0
0
0
0
0
0
0
99
0
0
0
0
0
0
0
0
204
0
0
204
0
0
0
0
0
0
0
0
0
0
0
99
0
0
0
0
0
0
0
0
204
0
0
204
0
0
0
0
0
0
0
0
0
0
0
99
0
0
0
0
0
0
0
0
204
0
0
204
0
0
0
0
0
0
0
0
0
0
0
99
0
0
0
0
0
0
0
0
204
0
0
0
0
0
0
0
0
0
0
0
0
0
0
99
0
0
0
0
0
0
0
0
204
0
0
0
0
0
0
0
0
0
0
0
0
0
0
99
0
0
0
0
0
0
0
0
204
0
0
0
0
0
0
0
0
0
0
0
0
0
0
99
0
0
0
0
0
0
0
0
99
0
0
204
0
0
204
0
0
0
0
0
58
0
0
58
0
0
0
0
0
0
0
0
99
0
0
204
0
0
204
0
0
0
0
0
58
0
0
58
0
0
0
0
0
0
0
0
99
0
0
204
0
0
0
0
0
0
0
0
58
0
0
58
0
0
0
0
0
0
0
0
99
0
0
204
0
0
0
0
0
0
0
0
58
0
0
58
0
0
0
0
0
0
0
0
99
0
0
204
0
0
0
0
0
0
0
0
58
0
0
58
0
0
0
0
0
0
0
0
99
0
0
58
0
0
0
0
0
0
0
0
58
0
0
58
0
0
0
0
0
0
0
0
99
0
0
58
0
0
0
0
0
0
0
0
58
0
0
58
0
0
0
0
0
0
0
0
99
0
0
58
0
0
0
0
0
0
0
0
58
0
0
58
0
0
0
0
0
0
0
0
0
0
0
99
0
0
204
0
0
99
0
0
58
0
0
0
0
0
0
0
0
0
0
0
0
0
0
99
0
0
204
0
0
99
0
0
58
0
0
0
0
0
0
0
0
0
0
0
0
0
0
99
0
0
99
0
0
99
0
0
58
0
0
0
0
0
0
0
0
0
0
0
0
0
0
99
0
0
99
0
0
99
0
0
58
0
0
0
0
0
0
0
0
0
0
0
0
0
0
99
0
0
99
0
0
99
0
0
58
0
0
0
0
0
0
0
0
0
0
0
0
0
0
58
0
0
99
0
0
99
0
0
58
0
0
0
0
0
0
0
0
0
0
0
0
0
0
58
0
0
99
0
0
99
0
0
58
0
0
0
0
0
0
0
0
0
0
0
0
0
0
58
0
0
99
0
0
99
0
0
58
0
0
0
0
0
0
0
0
0
0
0
0
0
0
0
0
0
0
0
0
0
0
0
0
0
0
0
0
0
0
0
0
0
0
0
0
0
0
0
0
0
0
0
0
0
0
0
0
0
0
0
0
0
0
0
0
0
0
0
0
0
0
0
0
0
0
0
0
0
0
0
0
0
0
0
0
0
0
0
0
0
0
0
0
0
0
0
0
0
0
0
0
0
0
0
0
0
0
0
0
0
0
0
0
0
0
0
0
0
0
0
0
0
0
0
0
0
0
0
0
0
0
0
0
0
0
0
0
0
0
0
0
0
0
0
0
0
0
0
0
0
0
0
0
0
0
0
0
0
0
0
0
0
0
0
0
0
0
0
0
0
0
0
0
0
0
0
0
0
0
0
0
0
0
0
0
0
0
0
0
0
0
0
0
0
0
0
0
0
0
0
0
0
0
0
0
0
0
0
0
0
0
0
0
0
0
0
0
0
0
0
0
0
0
0
0
0
0
0
0
0
0
0
0
0
0
0
0
0
0
0
0
0
0
0
0
0
0
0
0
0
0
0
0
0
0
0
0
0
0
0
0
0
0
0
0
0
0
0
0
0
0
0
0
0
0
0
0
0
0
0
0
0
0
0
0
0
0
0
0
0
0
0
0
0
0
0
0
0
0
0
0
0
0
0
0
0
0
0
0
0
0
0
0
0
0
0
0
0
0
0
0
0
0
0
0
0
0
0
0
0
0
0
0
0
0
0
0
0
0
0
0
0
0
0
0
0
0
0
0
0
0
0
0
0
0
0
0
0
0
0
0
0
0
0
0
0
0
0
0
0
0
0
0
0
0
0
0
0
0
0
0
0
0
0
0
0
0
0
0
0
0
0
0
0
0
0
0
0
0
0
0
0
0
0
0
0
0
99
0
0
204
0
0
204
0
0
99
0
0
0
0
0
0
0
0
0
0
0
0
0
0
99
0
0
204
0
0
204
0
0
99
0
0
0
0
0
0
0
0
0
0
0
0
0
0
99
0
0
204
0
0
204
0
0
58
0
0
0
0
0
0
0
0
0
0
0
0
0
0
99
0
0
204
0
0
204
0
0
58
0
0
0
0
0
0
0
0
0
0
0
0
0
0
99
0
0
204
0
0
204
0
0
58
0
0
0
0
0
0
0
0
0
0
0
0
0
0
99
0
0
204
0
0
99
0
0
58
0
0
0
0
0
0
0
0
0
0
0
0
0
0
99
0
0
204
0
0
99
0
0
58
0
0
0
0
0
0
0
0
0
0
0
0
0
0
99
0
0
204
0
0
99
0
0
58
0
0
0
0
0
0
0
0
0
0
0
99
0
0
255
0
0
255
0
0
255
0
0
255
0
0
99
0
0
0
0
0
0
0
0
99
0
0
204
0
0
204
0
0
204
0
0
204
0
0
58
0
0
0
0
0
0
0
0
99
0
0
204
0
0
204
0
0
204
0
0
58
0
0
58
0
0
0
0
0
0
0
0
99
0
0
204
0
0
204
0
0
204
0
0
58
0
0
58
0
0
0
0
0
0
0
0
99
0
0
204
0
0
204
0
0
204
0
0
58
0
0
58
0
0
0
0
0
0
0
0
99
0
0
204
0
0
204
0
0
0
0
0
58
0
0
58
0
0
0
0
0
0
0
0
99
0
0
204
0
0
204
0
0
0
0
0
58
0
0
58
0
0
0
0
0
0
0
0
99
0
0
204
0
0
204
0
0
0
0
0
58
0
0
58
0
0
0
0
0
0
0
0
204
0
0
255
0
0
255
0
0
255
0
0
255
0
0
204
0
0
0
0
0
0
0
0
204
0
0
204
0
0
204
0
0
204
0
0
204
0
0
99
0
0
0
0
0
0
0
0
204
0
0
204
0
0
204
0
0
204
0
0
0
0
0
99
0
0
0
0
0
0
0
0
204
0
0
204
0
0
204
0
0
204
0
0
0
0
0
99
0
0
0
0
0
0
0
0
204
0
0
204
0
0
204
0
0
204
0
0
0
0
0
99
0
0
0
0
0
0
0
0
204
0
0
204
0
0
204
0
0
0
0
0
0
0
0
99
0
0
0
0
0
0
0
0
204
0
0
204
0
0
204
0
0
0
0
0
0
0
0
99
0
0
0
0
0
0
0
0
204
0
0
204
0
0
204
0
0
0
0
0
0
0
0
99
0
0
0
0
0
0
0
0
204
0
0
255
0
0
255
0
0
255
0
0
255
0
0
204
0
0
0
0
0
0
0
0
204
0
0
204
0
0
204
0
0
204
0
0
204
0
0
99
0
0
0
0
0
0
0
0
204
0
0
204
0
0
204
0
0
204
0
0
0
0
0
99
0
0
0
0
0
0
0
0
204
0
0
204
0
0
204
0
0
204
0
0
0
0
0
99
0
0
0
0
0
0
0
0
204
0
0
204
0
0
204
0
0
204
0
0
0
0
0
99
0
0
0
0
0
0
0
0
204
0
0
204
0
0
204
0
0
0
0
0
0
0
0
99
0
0
0
0
0
0
0
0
204
0
0
204
0
0
204
0
0
0
0
0
0
0
0
99
0
0
0
0
0
0
0
0
204
0
0
204
0
0
204
0
0
0
0
0
0
0
0
99
0
0
0
0
0
0
0
0
99
0
0
255
0
0
255
0
0
255
0
0
255
0
0
99
0
0
0
0
0
0
0
0
99
0
0
204
0
0
204
0
0
204
0
0
204
0
0
58
0
0
0
0
0
0
0
0
99
0
0
204
0
0
204
0
0
204
0
0
58
0
0
58
0
0
0
0
0
0
0
0
99
0
0
204
0
0
204
0
0
204
0
0
58
0
0
58
0
0
0
0
0
0
0
0
99
0
0
204
0
0
204
0
0
204
0
0
58
0
0
58
0
0
0
0
0
0
0
0
99
0
0
204
0
0
204
0
0
0
0
0
58
0
0
58
0
0
0
0
0
0
0
0
99
0
0
204
0
0
204
0
0
0
0
0
58
0
0
58
0
0
0
0
0
0
0
0
99
0
0
204
0
0
204
0
0
0
0
0
58
0
0
58
0
0
0
0
0
0
0
0
0
0
0
99
0
0
204
0
0
204
0
0
99
0
0
0
0
0
0
0
0
0
0
0
0
0
0
99
0
0
204
0
0
204
0
0
99
0
0
0
0
0
0
0
0
0
0
0
0
0
0
99
0
0
204
0
0
204
0
0
58
0
0
0
0
0
0
0
0
0
0
0
0
0
0
99
0
0
204
0
0
204
0
0
58
0
0
0
0
0
0
0
0
0
0
0
0
0
0
99
0
0
204
0
0
204
0
0
58
0
0
0
0
0
0
0
0
0
0
0
0
0
0
99
0
0
204
0
0
99
0
0
58
0
0
0
0
0
0
0
0
0
0
0
0
0
0
99
0
0
204
0
0
99
0
0
58
0
0
0
0
0
0
0
0
0
0
0
0
0
0
99
0
0
204
0
0
99
0
0
58
0
0
0
0
0
0
0
0
0
0
0
0
0
0
0
0
0
0
0
0
0
0
0
0
0
0
0
0
0
0
0
0
0
0
0
0
0
0
0
0
0
0
0
0
0
0
0
0
0
0
0
0
0
0
0
0
0
0
0
0
0
0
0
0
0
0
0
0
0
0
0
0
0
0
0
0
0
0
0
0
0
0
0
0
0
0
0
0
0
0
0
0
0
0
0
0
0
0
0
0
0
0
0
0
0
0
0
0
0
0
0
0
0
0
0
0
0
0
0
0
0
0
0
0
0
0
0
0
0
0
0
0
0
0
0
0
0
0
0
0
0
0
0
0
0
0
0
0
0
0
0
0
0
0
0
0
0
0
0
0
0
0
0
0
0
0
0
0
0
0
0
0
0
0
0
0
0
0
0
0
0
0
0
0
0
0
0
0
0
0
0
0
0
0
0
0
0
0
0
0
0
0
0
0
0
0
0
0
0
0
0
0
0
0
0
0
0
0
0
0
0
0
0
0
0
0
0
0
0
0
0
0
0
0
0
0
0
0
0
0
0
0
0
0
0
0
0
0
0
0
0
0
0
0
0
0
0
0
0
0
0
0
0
0
0
0
0
0
0
0
0
0
0
0
0
0
0
0
0
0
0
0
0
0
0
0
0
0
0
0
0
0
0
0
0
0
0
0
0
0
0
0
0
0
0
0
0
0
0
0
0
0
0
0
0
0
0
0
0
0
0
0
0
0
0
0
0
0
0
0
0
0
0
0
0
0
0
0
0
0
0
0
0
0
0
0
0
0
0
0
0
0
0
0
0
0
0
0
0
0
0
0
0
0
0
0
0
0
0
0
0
0
0
0
0
0
0
0
0
0
0
0
0
0
0
0
0
0
0
0
0
0
0
0
0
0
0
0
58
0
0
99
0
0
204
0
0
99
0
0
0
0
0
0
0
0
0
0
0
0
0
0
58
0
0
99
0
0
204
0
0
99
0
0
0
0
0
0
0
0
0
0
0
0
0
0
58
0
0
204
0
0
204
0
0
99
0
0
0
0
0
0
0
0
0
0
0
0
0
0
58
0
0
204
0
0
204
0
0
99
0
0
0
0
0
0
0
0
0
0
0
0
0
0
58
0
0
204
0
0
204
0
0
99
0
0
0
0
0
0
0
0
0
0
0
0
0
0
58
0
0
204
0
0
204
0
0
99
0
0
0
0
0
0
0
0
0
0
0
0
0
0
99
0
0
204
0
0
204
0
0
99
0
0
0
0
0
0
0
0
0
0
0
0
0
0
99
0
0
204
0
0
204
0
0
99
0
0
0
0
0
0
0
0
0
0
0
58
0
0
58
0
0
0
0
0
204
0
0
204
0
0
99
0
0
0
0
0
0
0
0
58
0
0
58
0
0
0
0
0
204
0
0
204
0
0
99
0
0
0
0
0
0
0
0
58
0
0
58
0
0
204
0
0
204
0
0
204
0
0
99
0
0
0
0
0
0
0
0
58
0
0
58
0
0
204
0
0
204
0
0
204
0
0
99
0
0
0
0
0
0
0
0
58
0
0
58
0
0
204
0
0
204
0
0
204
0
0
99
0
0
0
0
0
0
0
0
58
0
0
58
0
0
204
0
0
204
0
0
204
0
0
99
0
0
0
0
0
0
0
0
58
0
0
204
0
0
204
0
0
204
0
0
204
0
0
99
0
0
0
0
0
0
0
0
58
0
0
204
0
0
204
0
0
204
0
0
204
0
0
99
0
0
0
0
0
0
0
0
99
0
0
0
0
0
0
0
0
204
0
0
204
0
0
204
0
0
0
0
0
0
0
0
99
0
0
0
0
0
0
0
0
204
0
0
204
0
0
204
0
0
0
0
0
0
0
0
99
0
0
0
0
0
204
0
0
204
0
0
204
0
0
204
0
0
0
0
0
0
0
0
99
0
0
0
0
0
204
0
0
204
0
0
204
0
0
204
0
0
0
0
0
0
0
0
99
0
0
0
0
0
204
0
0
204
0
0
204
0
0
204
0
0
0
0
0
0
0
0
99
0
0
0
0
0
204
0
0
204
0
0
204
0
0
204
0
0
0
0
0
0
0
0
99
0
0
204
0
0
204
0
0
204
0
0
204
0
0
204
0
0
0
0
0
0
0
0
99
0
0
204
0
0
204
0
0
204
0
0
204
0
0
204
0
0
0
0
0
0
0
0
99
0
0
0
0
0
0
0
0
204
0
0
204
0
0
204
0
0
0
0
0
0
0
0
99
0
0
0
0
0
0
0
0
204
0
0
204
0
0
204
0
0
0
0
0
0
0
0
99
0
0
0
0
0
204
0
0
204
0
0
204
0
0
204
0
0
0
0
0
0
0
0
99
0
0
0
0
0
204
0
0
204
0
0
204
0
0
204
0
0
0
0
0
0
0
0
99
0
0
0
0
0
204
0
0
204
0
0
204
0
0
204
0
0
0
0
0
0
0
0
99
0
0
0
0
0
204
0
0
204
0
0
204
0
0
204
0
0
0
0
0
0
0
0
99
0
0
204
0
0
204
0
0
204
0
0
204
0
0
204
0
0
0
0
0
0
0
0
99
0
0
204
0
0
204
0
0
204
0
0
204
0
0
204
0
0
0
0
0
0
0
0
58
0
0
58
0
0
0
0
0
204
0
0
204
0
0
99
0
0
0
0
0
0
0
0
58
0
0
58
0
0
0
0
0
204
0
0
204
0
0
99
0
0
0
0
0
0
0
0
58
0
0
58
0
0
204
0
0
204
0
0
204
0
0
99
0
0
0
0
0
0
0
0
58
0
0
58
0
0
204
0
0
204
0
0
204
0
0
99
0
0
0
0
0
0
0
0
58
0
0
58
0
0
204
0
0
204
0
0
204
0
0
99
0
0
0
0
0
0
0
0
58
0
0
58
0
0
204
0
0
204
0
0
204
0
0
99
0
0
0
0
0
0
0
0
58
0
0
204
0
0
204
0
0
204
0
0
204
0
0
99
0
0
0
0
0
0
0
0
58
0
0
204
0
0
204
0
0
204
0
0
204
0
0
99
0
0
0
0
0
0
0
0
0
0
0
58
0
0
99
0
0
204
0
0
99
0
0
0
0
0
0
0
0
0
0
0
0
0
0
58
0
0
99
0
0
204
0
0
99
0
0
0
0
0
0
0
0
0
0
0
0
0
0
58
0
0
204
0
0
204
0
0
99
0
0
0
0
0
0
0
0
0
0
0
0
0
0
58
0
0
204
0
0
204
0
0
99
0
0
0
0
0
0
0
0
0
0
0
0
0
0
58
0
0
204
0
0
204
0
0
99
0
0
0
0
0
0
0
0
0
0
0
0
0
0
58
0
0
204
0
0
204
0
0
99
0
0
0
0
0
0
0
0
0
0
0
0
0
0
99
0
0
204
0
0
204
0
0
99
0
0
0
0
0
0
0
0
0
0
0
0
0
0
99
0
0
204
0
0
204
0
0
99
0
0
0
0
0
0
0
0
0
0
0
0
0
0
0
0
0
0
0
0
0
0
0
0
0
0
0
0
0
0
0
0
0
0
0
0
0
0
0
0
0
0
0
0
0
0
0
0
0
0
0
0
0
0
0
0
0
0
0
0
0
0
0
0
0
0
0
0
0
0
0
0
0
0
0
0
0
0
0
0
0
0
0
0
0
0
0
0
0
0
0
0
0
0
0
0
0
0
0
0
0
0
0
0
0
0
0
0
0
0
0
0
0
0
0
0
0
0
0
0
0
0
0
0
0
0
0
0
0
0
0
0
0
0
0
0
0
0
0
0
0
0
0
0
0
0
0
0
0
0
0
0
0
0
0
0
0
0
0
0
0
0
0
0
0
0
0
0
0
0
0
0
0
0
0
0
0
0
0
0
0
0
0
0
0
0
0
0
0
0
0
0
0
0
0
0
0
0
0
0
0
0
0
0
0
0
0
0
0
0
0
0
0
0
0
0
0
0
0
0
0
0
0
0
0
0
0
0
0
0
0
0
0
0
0
0
0
0
0
0
0
0
0
0
0
0
0
0
0
0
0
0
0
0
0
0
0
0
0
0
0
0
0
0
0
0
0
0
0
0
0
0
0
0
0
0
0
0
0
0
0
0
0
0
0
0
0
0
0
0
0
0
0
0
0
0
0
0
0
0
0
0
0
0
0
0
0
0
0
0
0
0
0
0
0
0
0
0
0
0
0
0
0
0
0
0
0
0
0
0
0
0
0
0
0
0
0
0
0
0
0
0
0
0
0
0
0
0
0
0
0
0
0
0
0
0
0
0
0
0
0
0
0
0
0
0
0
0
0
0
0
0
0
0
0
0
0
0
0
0
0
0
0
0
0
0
0
0
0
0
0
0
0
0
0
0
0
0
58
0
0
99
0
0
99
0
0
58
0
0
0
0
0
0
0
0
0
0
0
0
0
0
58
0
0
99
0
0
99
0
0
58
0
0
0
0
0
0
0
0
0
0
0
0
0
0
58
0
0
99
0
0
99
0
0
58
0
0
0
0
0
0
0
0
0
0
0
0
0
0
58
0
0
99
0
0
99
0
0
99
0
0
0
0
0
0
0
0
0
0
0
0
0
0
58
0
0
99
0
0
99
0
0
99
0
0
0
0
0
0
0
0
0
0
0
0
0
0
58
0
0
99
0
0
99
0
0
99
0
0
0
0
0
0
0
0
0
0
0
0
0
0
58
0
0
99
0
0
204
0
0
99
0
0
0
0
0
0
0
0
0
0
0
0
0
0
58
0
0
99
0
0
204
0
0
99
0
0
0
0
0
0
0
0
0
0
0
58
0
0
58
0
0
0
0
0
0
0
0
58
0
0
58
0
0
0
0
0
0
0
0
58
0
0
58
0
0
0
0
0
0
0
0
58
0
0
99
0
0
0
0
0
0
0
0
58
0
0
58
0
0
0
0
0
0
0
0
58
0
0
99
0
0
0
0
0
0
0
0
58
0
0
58
0
0
0
0
0
0
0
0
204
0
0
99
0
0
0
0
0
0
0
0
58
0
0
58
0
0
0
0
0
0
0
0
204
0
0
99
0
0
0
0
0
0
0
0
58
0
0
58
0
0
0
0
0
0
0
0
204
0
0
99
0
0
0
0
0
0
0
0
58
0
0
58
0
0
0
0
0
204
0
0
204
0
0
99
0
0
0
0
0
0
0
0
58
0
0
58
0
0
0
0
0
204
0
0
204
0
0
99
0
0
0
0
0
0
0
0
99
0
0
0
0
0
0
0
0
0
0
0
0
0
0
99
0
0
0
0
0
0
0
0
99
0
0
0
0
0
0
0
0
0
0
0
0
0
0
204
0
0
0
0
0
0
0
0
99
0
0
0
0
0
0
0
0
0
0
0
0
0
0
204
0
0
0
0
0
0
0
0
99
0
0
0
0
0
0
0
0
0
0
0
204
0
0
204
0
0
0
0
0
0
0
0
99
0
0
0
0
0
0
0
0
0
0
0
204
0
0
204
0
0
0
0
0
0
0
0
99
0
0
0
0
0
0
0
0
0
0
0
204
0
0
204
0
0
0
0
0
0
0
0
99
0
0
0
0
0
0
0
0
204
0
0
204
0
0
204
0
0
0
0
0
0
0
0
99
0
0
0
0
0
0
0
0
204
0
0
204
0
0
204
0
0
0
0
0
0
0
0
99
0
0
0
0
0
0
0
0
0
0
0
0
0
0
99
0
0
0
0
0
0
0
0
99
0
0
0
0
0
0
0
0
0
0
0
0
0
0
204
0
0
0
0
0
0
0
0
99
0
0
0
0
0
0
0
0
0
0
0
0
0
0
204
0
0
0
0
0
0
0
0
99
0
0
0
0
0
0
0
0
0
0
0
204
0
0
204
0
0
0
0
0
0
0
0
99
0
0
0
0
0
0
0
0
0
0
0
204
0
0
204
0
0
0
0
0
0
0
0
99
0
0
0
0
0
0
0
0
0
0
0
204
0
0
204
0
0
0
0
0
0
0
0
99
0
0
0
0
0
0
0
0
204
0
0
204
0
0
204
0
0
0
0
0
0
0
0
99
0
0
0
0
0
0
0
0
204
0
0
204
0
0
204
0
0
0
0
0
0
0
0
58
0
0
58
0
0
0
0
0
0
0
0
58
0
0
58
0
0
0
0
0
0
0
0
58
0
0
58
0
0
0
0
0
0
0
0
58
0
0
99
0
0
0
0
0
0
0
0
58
0
0
58
0
0
0
0
0
0
0
0
58
0
0
99
0
0
0
0
0
0
0
0
58
0
0
58
0
0
0
0
0
0
0
0
204
0
0
99
0
0
0
0
0
0
0
0
58
0
0
58
0
0
0
0
0
0
0
0
204
0
0
99
0
0
0
0
0
0
0
0
58
0
0
58
0
0
0
0
0
0
0
0
204
0
0
99
0
0
0
0
0
0
0
0
58
0
0
58
0
0
0
0
0
204
0
0
204
0
0
99
0
0
0
0
0
0
0
0
58
0
0
58
0
0
0
0
0
204
0
0
204
0
0
99
0
0
0
0
0
0
0
0
0
0
0
58
0
0
99
0
0
99
0
0
58
0
0
0
0
0
0
0
0
0
0
0
0
0
0
58
0
0
99
0
0
99
0
0
58
0
0
0
0
0
0
0
0
0
0
0
0
0
0
58
0
0
99
0
0
99
0
0
58
0
0
0
0
0
0
0
0
0
0
0
0
0
0
58
0
0
99
0
0
99
0
0
99
0
0
0
0
0
0
0
0
0
0
0
0
0
0
58
0
0
99
0
0
99
0
0
99
0
0
0
0
0
0
0
0
0
0
0
0
0
0
58
0
0
99
0
0
99
0
0
99
0
0
0
0
0
0
0
0
0
0
0
0
0
0
58
0
0
99
0
0
204
0
0
99
0
0
0
0
0
0
0
0
0
0
0
0
0
0
58
0
0
99
0
0
204
0
0
99
0
0
0
0
0
0
0
0
0
0
0
0
0
0
0
0
0
0
0
0
0
0
0
0
0
0
0
0
0
0
0
0
0
0
0
0
0
0
0
0
0
0
0
0
0
0
0
0
0
0
0
0
0
0
0
0
0
0
0
0
0
0
0
0
0
0
0
0
0
0
0
0
0
0
0
0
0
0
0
0
0
0
0
0
0
0
0
0
0
0
0
0
0
0
0
0
0
0
0
0
0
0
0
0
0
0
0
0
0
0
0
0
0
0
0
0
0
0
0
0
0
0
0
0
0
0
0
0
0
0
0
0
0
0
0
0
0
0
0
0
0
0
0
0
0
0
0
0
0
0
0
0
0
0
0
0
0
0
0
0
0
0
0
0
0
0
0
0
0
0
0
0
0
0
0
0
0
0
0
0
0
0
0
0
0
0
0
0
0
0
0
0
0
0
0
0
0
0
0
0
