P3
# CREATOR: GIMP PNM Filter Version 1.1
64 32
255
0
0
0
0
0
0
0
0
0
0
0
0
0
0
0
0
0
0
0
0
0
0
0
0
0
0
0
0
0
0
0
0
0
0
0
0
255
245
0
0
0
0
0
0
0
0
0
0
0
0
0
0
0
0
0
0
0
0
0
0
0
0
0
0
0
0
255
255
255
0
0
0
0
0
0
0
0
0
0
0
0
0
0
0
0
0
0
0
0
0
255
245
0
255
245
0
0
0
0
0
0
0
0
0
0
0
0
0
0
0
0
0
0
0
0
0
0
0
0
0
99
99
99
0
0
0
99
99
99
0
0
0
99
99
99
0
0
0
99
99
99
0
0
0
99
99
99
99
99
99
99
99
99
99
99
99
99
99
99
99
99
99
99
99
99
99
99
99
0
0
0
0
0
0
0
0
0
0
0
0
0
0
0
0
0
0
0
0
0
0
0
0
0
0
0
0
0
0
0
0
0
0
0
0
0
0
0
0
0
0
0
0
0
0
0
0
0
0
0
255
245
0
0
0
0
0
0
0
0
0
0
0
0
0
255
245
0
0
0
0
0
0
0
0
0
0
0
0
0
0
0
0
0
0
0
0
0
0
255
255
255
255
255
255
0
0
0
0
0
0
0
0
0
0
0
0
0
0
0
0
0
0
255
245
0
255
245
0
0
0
0
0
0
0
0
0
0
0
0
0
0
0
0
0
0
0
0
0
0
0
0
0
0
0
0
99
99
99
0
0
0
99
99
99
0
0
0
99
99
99
0
0
0
99
99
99
99
99
99
99
99
99
99
99
99
99
99
99
99
99
99
99
99
99
99
99
99
99
99
99
0
0
0
0
0
0
0
0
0
0
0
0
0
0
0
0
0
0
0
0
0
0
0
0
0
0
0
0
0
0
0
0
0
255
255
255
255
255
255
0
0
0
0
0
0
0
0
0
0
0
0
0
0
0
0
0
0
255
245
0
255
245
0
0
0
0
0
0
0
0
0
0
0
0
0
0
0
0
0
0
0
204
204
204
204
204
204
204
204
204
0
0
0
0
0
0
0
0
0
0
0
0
0
0
0
204
204
204
204
204
204
204
204
204
0
0
0
0
0
0
0
0
0
0
0
0
0
0
0
0
0
0
0
0
0
0
0
0
0
0
0
0
0
0
99
99
99
0
0
0
99
99
99
0
0
0
99
99
99
0
0
0
99
99
99
0
0
0
99
99
99
99
99
99
99
99
99
99
99
99
99
99
99
99
99
99
99
99
99
99
99
99
0
0
0
0
0
0
0
0
0
204
204
204
204
204
204
204
204
204
0
0
0
0
0
0
0
0
0
0
0
0
0
0
0
0
0
0
255
255
255
255
255
255
0
0
0
0
0
0
0
0
0
0
0
0
255
245
0
255
245
0
255
245
0
255
245
0
0
0
0
255
245
0
0
0
0
204
204
204
204
204
204
0
0
0
204
204
204
204
204
204
204
204
204
0
0
0
0
0
0
204
204
204
204
204
204
0
0
0
204
204
204
204
204
204
204
204
204
0
0
0
0
0
0
0
0
0
0
0
0
0
0
0
0
0
0
0
0
0
0
0
0
0
0
0
0
0
0
99
99
99
0
0
0
99
99
99
0
0
0
99
99
99
0
0
0
99
99
99
99
99
99
99
99
99
99
99
99
99
99
99
99
99
99
99
99
99
99
99
99
99
99
99
0
0
0
204
204
204
204
204
204
0
0
0
204
204
204
204
204
204
204
204
204
0
0
0
0
0
0
0
0
0
0
0
0
0
0
0
255
255
255
255
255
255
0
0
0
0
0
0
255
245
0
0
0
0
255
245
0
255
245
0
255
245
0
255
245
0
0
0
0
0
0
0
204
204
204
204
204
204
204
204
204
204
204
204
204
204
204
204
204
204
204
204
204
204
204
204
204
204
204
204
204
204
204
204
204
204
204
204
204
204
204
204
204
204
204
204
204
204
204
204
0
0
0
0
0
0
0
0
0
0
0
0
0
0
0
0
0
0
0
0
0
0
0
0
99
99
99
0
0
0
99
99
99
0
0
0
99
99
99
0
0
0
99
99
99
0
0
0
99
99
99
99
99
99
99
99
99
99
99
99
99
99
99
99
99
99
99
99
99
99
99
99
204
204
204
204
204
204
204
204
204
204
204
204
204
204
204
204
204
204
204
204
204
204
204
204
0
0
0
0
0
0
0
0
0
0
0
0
255
255
255
255
255
255
0
0
0
0
0
0
0
0
0
0
0
0
0
0
0
255
245
0
255
245
0
0
0
0
0
0
0
0
0
0
204
204
204
204
204
204
204
204
204
204
204
204
204
204
204
206
206
196
204
204
202
204
204
204
204
204
204
204
204
204
204
204
204
204
204
204
204
204
204
206
206
196
204
204
202
204
204
204
0
0
0
0
0
0
0
0
0
0
0
0
0
0
0
0
0
0
0
0
0
0
0
0
0
0
0
99
99
99
0
0
0
99
99
99
0
0
0
99
99
99
0
0
0
99
99
99
99
99
99
99
99
99
99
99
99
99
99
99
99
99
99
99
99
99
99
99
99
99
99
99
204
204
204
204
204
204
204
204
204
204
204
204
204
204
204
206
206
196
204
204
202
204
204
204
0
0
0
0
0
0
0
0
0
255
255
255
255
255
255
0
0
0
0
0
0
0
0
0
0
0
0
255
245
0
0
0
0
0
0
0
0
0
0
0
0
0
255
245
0
0
0
0
0
0
0
204
204
204
204
204
204
204
204
204
204
204
204
204
204
204
204
204
204
0
0
0
0
0
0
204
204
204
204
204
204
204
204
204
204
204
204
204
204
204
204
204
204
0
0
0
0
0
0
0
0
0
0
0
0
0
0
0
0
0
0
0
0
0
0
0
0
0
0
0
99
99
99
0
0
0
99
99
99
0
0
0
99
99
99
0
0
0
99
99
99
0
0
0
99
99
99
99
99
99
99
99
99
99
99
99
99
99
99
99
99
99
99
99
99
99
99
99
0
0
0
204
204
204
204
204
204
204
204
204
204
204
204
204
204
204
204
204
204
0
0
0
0
0
0
0
0
0
0
0
0
0
0
0
0
0
0
0
0
0
0
0
0
0
0
0
0
0
0
0
0
0
0
0
0
255
245
0
0
0
0
0
0
0
0
0
0
0
0
0
0
0
0
0
0
0
0
0
0
0
0
0
0
0
0
0
0
0
0
0
0
0
0
0
0
0
0
0
0
0
0
0
0
0
0
0
0
0
0
0
0
0
0
0
0
0
0
0
0
0
0
0
0
0
0
0
0
0
0
0
0
0
0
0
0
0
0
0
0
0
0
0
0
0
0
99
99
99
0
0
0
99
99
99
0
0
0
99
99
99
0
0
0
99
99
99
99
99
99
99
99
99
99
99
99
99
99
99
99
99
99
99
99
99
99
99
99
99
99
99
0
0
0
0
0
0
0
0
0
0
0
0
0
0
0
0
0
0
0
0
0
0
0
0
0
0
0
0
0
0
0
0
0
0
0
0
0
0
0
0
0
0
0
0
0
0
0
0
0
0
0
0
0
0
0
0
0
204
204
204
204
204
204
204
204
204
0
0
0
0
0
0
0
0
0
0
0
0
0
0
0
0
0
0
0
0
0
0
0
0
255
245
0
255
245
0
0
0
0
0
0
0
0
0
0
204
204
204
204
204
204
204
204
204
0
0
0
0
0
0
0
0
0
0
0
0
0
0
0
204
204
204
204
204
204
204
204
204
0
0
0
0
0
0
0
0
0
0
0
0
0
0
0
204
204
204
204
204
204
204
204
204
0
0
0
0
0
0
0
0
0
0
0
0
0
0
0
0
0
0
0
0
0
0
0
0
255
245
0
255
245
0
0
0
0
0
0
0
0
0
0
204
204
204
204
204
204
204
204
204
0
0
0
0
0
0
0
0
0
0
0
0
0
0
0
0
0
0
0
0
0
0
0
0
0
0
0
0
0
0
0
0
0
204
204
204
204
204
204
0
0
0
0
0
0
0
0
0
204
204
204
0
0
0
0
0
0
0
0
0
0
0
0
204
204
204
204
204
204
204
204
204
255
245
0
255
245
0
0
0
0
204
204
204
204
204
204
0
0
0
0
0
0
0
0
0
204
204
204
0
0
0
0
0
0
204
204
204
204
204
204
0
0
0
0
0
0
0
0
0
204
204
204
0
0
0
0
0
0
204
204
204
204
204
204
0
0
0
0
0
0
0
0
0
204
204
204
0
0
0
0
0
0
0
0
0
0
0
0
204
204
204
204
204
204
204
204
204
255
245
0
255
245
0
0
0
0
204
204
204
204
204
204
0
0
0
0
0
0
0
0
0
204
204
204
0
0
0
0
0
0
0
0
0
0
0
0
204
204
204
204
204
204
204
204
204
0
0
0
0
0
0
204
204
204
0
0
0
0
0
0
204
204
204
0
0
0
0
0
0
0
0
0
204
204
204
0
0
0
204
204
204
204
204
204
0
0
0
0
0
0
0
0
0
204
204
204
0
0
0
204
204
204
0
0
0
0
0
0
204
204
204
0
0
0
0
0
0
0
0
0
204
204
204
204
204
204
0
0
0
0
0
0
204
204
204
0
0
0
0
0
0
0
0
0
204
204
204
204
204
204
0
0
0
0
0
0
204
204
204
0
0
0
0
0
0
0
0
0
204
204
204
0
0
0
204
204
204
204
204
204
0
0
0
0
0
0
0
0
0
204
204
204
0
0
0
204
204
204
0
0
0
0
0
0
204
204
204
0
0
0
0
0
0
0
0
0
204
204
204
0
0
0
204
204
204
204
204
204
0
0
0
0
0
0
0
0
0
204
204
204
0
0
0
204
204
204
0
0
0
0
0
0
0
0
0
0
0
0
0
0
0
0
0
0
204
204
204
204
204
204
0
0
0
0
0
0
204
204
204
0
0
0
0
0
0
0
0
0
204
204
204
204
204
204
0
0
0
0
0
0
0
0
0
0
0
0
0
0
0
0
0
0
204
204
204
204
204
204
0
0
0
0
0
0
0
0
0
0
0
0
0
0
0
0
0
0
204
204
204
204
204
204
0
0
0
0
0
0
0
0
0
0
0
0
0
0
0
0
0
0
204
204
204
204
204
204
0
0
0
0
0
0
204
204
204
0
0
0
0
0
0
0
0
0
204
204
204
204
204
204
0
0
0
0
0
0
0
0
0
0
0
0
0
0
0
0
0
0
204
204
204
204
204
204
0
0
0
0
0
0
204
204
204
0
0
0
0
0
0
0
0
0
204
204
204
0
0
0
204
204
204
204
204
204
204
204
204
204
204
204
0
212
255
204
204
204
0
0
0
204
204
204
0
0
0
0
0
0
0
0
0
0
0
0
0
0
0
0
0
0
204
204
204
0
0
0
204
204
204
204
204
204
204
204
204
204
204
204
204
204
204
204
204
204
0
0
0
0
0
0
204
204
204
204
204
204
204
204
204
204
204
204
0
212
255
204
204
204
0
0
0
0
0
0
204
204
204
204
204
204
0
212
255
204
204
204
204
204
204
204
204
204
0
0
0
204
204
204
0
0
0
0
0
0
0
0
0
0
0
0
0
0
0
0
0
0
204
204
204
0
0
0
204
204
204
204
204
204
0
212
255
204
204
204
204
204
204
204
204
204
0
0
0
204
204
204
0
0
0
0
0
0
0
0
0
0
0
0
0
0
0
0
0
0
204
204
204
0
0
0
0
0
0
0
0
0
0
0
0
0
212
255
0
0
0
0
0
0
0
0
0
0
0
0
204
204
204
204
204
204
204
204
204
204
204
204
0
212
255
204
204
204
0
0
0
0
0
0
0
0
0
0
0
0
0
0
0
0
0
0
0
212
255
0
0
0
0
0
0
0
0
0
0
0
0
0
0
0
0
0
0
0
212
255
0
0
0
0
0
0
0
0
0
0
0
0
0
0
0
0
212
255
0
0
0
0
0
0
0
212
255
0
0
0
0
0
0
0
0
0
204
204
204
204
204
204
0
212
255
204
204
204
204
204
204
204
204
204
0
0
0
0
0
0
0
0
0
0
212
255
0
0
0
0
0
0
0
212
255
0
0
0
0
0
0
0
0
0
204
204
204
204
204
204
204
204
204
204
204
204
204
204
204
204
204
204
0
0
0
0
0
0
0
0
0
0
0
0
0
212
255
0
0
0
0
0
0
0
0
0
0
0
0
0
0
0
0
0
0
0
0
0
0
0
0
0
212
255
0
0
0
0
0
0
0
0
0
0
0
0
0
0
0
0
212
255
0
0
0
0
0
0
0
0
0
0
0
0
0
0
0
0
0
0
0
0
0
0
0
0
0
212
255
0
0
0
0
0
0
0
0
0
0
0
0
0
0
0
0
212
255
0
0
0
0
0
0
0
212
255
0
0
0
0
0
0
0
0
0
0
0
0
0
0
0
0
212
255
0
0
0
0
0
0
0
212
255
0
0
0
0
0
0
0
0
0
0
212
255
0
0
0
0
0
0
0
212
255
0
0
0
0
0
0
0
0
0
0
0
0
0
0
0
0
0
0
0
0
0
0
0
0
0
0
0
0
0
0
0
0
0
0
0
0
0
0
0
0
212
255
0
0
0
0
0
0
0
0
0
0
0
0
0
0
0
0
0
0
0
0
0
0
0
0
0
212
255
0
0
0
0
0
0
0
0
0
0
0
0
0
0
0
0
0
0
0
0
0
0
0
0
0
212
255
0
0
0
0
0
0
0
0
0
0
0
0
0
0
0
0
212
255
0
0
0
0
0
0
0
0
0
0
0
0
0
0
0
0
212
255
0
0
0
0
0
0
0
212
255
0
0
0
0
0
0
0
0
0
0
0
0
0
0
0
0
212
255
0
0
0
0
0
0
0
212
255
0
0
0
0
0
0
0
0
0
0
212
255
0
0
0
0
0
0
0
212
255
0
0
0
0
0
0
0
0
0
0
0
0
0
0
0
0
0
0
0
0
0
204
204
204
204
204
204
204
204
204
0
0
0
0
0
0
0
0
0
0
0
0
0
0
0
0
0
0
0
0
0
0
0
0
255
245
0
255
245
0
0
0
0
0
0
0
0
0
0
204
204
204
204
204
204
204
204
204
0
0
0
0
0
0
0
0
0
0
0
0
0
0
0
204
204
204
204
204
204
204
204
204
0
0
0
0
0
0
0
0
0
0
0
0
0
0
0
204
204
204
204
204
204
204
204
204
0
0
0
0
0
0
0
0
0
0
0
0
0
0
0
204
204
204
204
204
204
204
204
204
0
0
0
0
0
0
0
0
0
0
0
0
0
0
0
204
204
204
204
204
204
204
204
204
0
0
0
0
0
0
0
0
0
0
0
0
0
0
0
0
0
0
0
0
0
0
0
0
255
245
0
255
245
0
0
0
0
204
204
204
204
204
204
0
0
0
0
0
0
0
0
0
204
204
204
0
0
0
0
0
0
0
0
0
0
0
0
204
204
204
204
204
204
204
204
204
255
245
0
255
245
0
0
0
0
204
204
204
204
204
204
0
0
0
0
0
0
0
0
0
204
204
204
0
0
0
0
0
0
204
204
204
204
204
204
0
0
0
0
0
0
0
0
0
204
204
204
0
0
0
0
0
0
204
204
204
204
204
204
0
0
0
0
0
0
0
0
0
204
204
204
0
0
0
0
0
0
204
204
204
204
204
204
0
0
0
0
0
0
0
0
0
204
204
204
0
0
0
0
0
0
204
204
204
204
204
204
0
0
0
0
0
0
0
0
0
204
204
204
0
0
0
0
0
0
0
0
0
0
0
0
204
204
204
204
204
204
204
204
204
255
245
0
255
245
0
204
204
204
0
0
0
0
0
0
204
204
204
0
0
0
0
0
0
0
0
0
204
204
204
0
0
0
204
204
204
204
204
204
0
0
0
0
0
0
0
0
0
204
204
204
0
0
0
204
204
204
0
0
0
0
0
0
204
204
204
0
0
0
0
0
0
0
0
0
204
204
204
204
204
204
0
0
0
0
0
0
204
204
204
0
0
0
0
0
0
0
0
0
204
204
204
204
204
204
0
0
0
0
0
0
204
204
204
0
0
0
0
0
0
0
0
0
204
204
204
204
204
204
0
0
0
0
0
0
204
204
204
0
0
0
0
0
0
0
0
0
204
204
204
204
204
204
0
0
0
0
0
0
204
204
204
0
0
0
0
0
0
0
0
0
204
204
204
0
0
0
204
204
204
204
204
204
0
0
0
0
0
0
0
0
0
204
204
204
0
0
0
204
204
204
0
0
0
0
0
0
0
0
0
0
0
0
0
0
0
0
0
0
204
204
204
204
204
204
0
0
0
0
0
0
204
204
204
0
0
0
0
0
0
0
0
0
204
204
204
204
204
204
0
0
0
0
0
0
0
0
0
0
0
0
0
0
0
0
0
0
204
204
204
204
204
204
0
0
0
0
0
0
0
0
0
0
0
0
0
0
0
0
0
0
204
204
204
204
204
204
0
0
0
0
0
0
0
0
0
0
0
0
0
0
0
0
0
0
204
204
204
204
204
204
0
0
0
0
0
0
0
0
0
0
0
0
0
0
0
0
0
0
204
204
204
204
204
204
0
0
0
0
0
0
0
0
0
0
0
0
0
0
0
0
0
0
204
204
204
204
204
204
0
0
0
0
0
0
204
204
204
0
0
0
0
0
0
0
0
0
204
204
204
0
0
0
204
204
204
204
204
204
204
204
204
204
204
204
0
212
255
204
204
204
0
0
0
204
204
204
0
0
0
0
0
0
0
0
0
0
0
0
0
0
0
0
0
0
204
204
204
0
0
0
204
204
204
204
204
204
204
204
204
204
204
204
0
212
255
204
204
204
0
0
0
0
0
0
204
204
204
204
204
204
204
204
204
204
204
204
204
204
204
204
204
204
0
0
0
0
0
0
204
204
204
204
204
204
204
204
204
204
204
204
204
204
204
204
204
204
0
0
0
0
0
0
204
204
204
204
204
204
204
204
204
204
204
204
204
204
204
204
204
204
0
0
0
0
0
0
204
204
204
204
204
204
204
204
204
204
204
204
204
204
204
204
204
204
0
0
0
204
204
204
0
0
0
0
0
0
0
0
0
0
0
0
0
0
0
0
0
0
204
204
204
0
0
0
0
0
0
0
0
0
0
0
0
0
212
255
0
0
0
0
0
0
0
0
0
0
0
0
204
204
204
204
204
204
204
204
204
204
204
204
0
212
255
204
204
204
0
0
0
0
0
0
0
0
0
0
0
0
0
0
0
0
212
255
0
0
0
0
0
0
0
0
0
0
0
0
0
0
0
0
0
0
0
0
0
255
255
255
255
255
255
0
0
0
0
0
0
0
0
0
0
0
0
0
0
0
0
0
0
255
255
255
255
255
255
0
0
0
0
0
0
0
0
0
0
0
0
0
0
0
0
0
0
255
255
255
255
255
255
0
0
0
0
0
0
0
0
0
0
0
0
0
0
0
0
0
0
0
0
0
255
255
255
0
0
0
0
0
0
0
0
0
204
204
204
204
204
204
204
204
204
204
204
204
255
255
255
204
204
204
0
0
0
0
0
0
255
255
255
0
0
0
0
212
255
0
0
0
0
0
0
0
0
0
0
0
0
0
0
0
0
0
0
0
0
0
0
0
0
0
212
255
0
0
0
255
255
255
0
0
0
0
0
0
255
255
255
0
0
0
0
212
255
0
0
0
0
0
0
0
0
0
0
0
0
0
0
0
255
255
255
255
255
255
0
0
0
255
255
255
255
255
255
0
0
0
0
0
0
0
0
0
255
255
255
255
255
255
0
0
0
255
255
255
255
255
255
0
0
0
0
0
0
0
0
0
255
255
255
255
255
255
0
0
0
255
255
255
255
255
255
0
0
0
0
0
0
0
0
0
0
0
0
0
0
0
255
255
255
0
0
0
0
0
0
0
0
0
0
0
0
0
0
0
0
0
0
0
0
0
255
255
255
0
0
0
0
0
0
0
0
0
0
0
0
0
0
0
0
0
0
0
212
255
0
0
0
0
0
0
255
255
255
0
0
0
0
0
0
0
0
0
255
255
255
0
0
0
0
212
255
0
0
0
0
0
0
0
0
0
0
0
0
0
0
0
0
0
0
0
212
255
0
0
0
0
0
0
255
255
255
0
0
0
0
0
0
0
0
0
255
255
255
255
255
255
0
0
0
0
0
0
0
0
0
0
0
0
0
0
0
0
0
0
255
255
255
255
255
255
0
0
0
0
0
0
0
0
0
0
0
0
0
0
0
0
0
0
255
255
255
255
255
255
0
0
0
0
0
0
0
0
0
0
0
0
0
0
0
0
0
0
255
255
255
0
0
0
0
0
0
255
255
255
0
0
0
0
0
0
0
0
0
0
0
0
255
255
255
0
0
0
0
0
0
0
0
0
0
0
0
0
0
0
0
0
0
0
0
0
0
0
0
0
0
0
204
204
204
204
204
204
204
204
204
0
0
0
0
0
0
0
0
0
0
0
0
0
0
0
204
204
204
204
204
204
204
204
204
0
0
0
0
0
0
0
0
0
0
0
0
0
0
0
0
0
0
0
0
0
0
0
0
255
245
0
255
245
0
0
0
0
0
0
0
0
0
0
204
204
204
204
204
204
204
204
204
0
0
0
0
0
0
0
0
0
0
0
0
0
0
0
204
204
204
204
204
204
204
204
204
0
0
0
0
0
0
0
0
0
0
0
0
0
0
0
204
204
204
204
204
204
204
204
204
0
0
0
0
0
0
0
0
0
0
0
0
0
0
0
204
204
204
204
204
204
204
204
204
0
0
0
0
0
0
0
0
0
0
0
0
0
0
0
0
0
0
0
0
0
0
0
0
0
0
0
0
0
0
0
0
0
204
204
204
204
204
204
0
0
0
0
0
0
0
0
0
204
204
204
0
0
0
0
0
0
204
204
204
204
204
204
0
0
0
0
0
0
0
0
0
204
204
204
0
0
0
0
0
0
0
0
0
0
0
0
204
204
204
204
204
204
204
204
204
255
245
0
255
245
0
0
0
0
204
204
204
204
204
204
0
0
0
0
0
0
0
0
0
204
204
204
0
0
0
0
0
0
204
204
204
204
204
204
0
0
0
0
0
0
0
0
0
204
204
204
0
0
0
0
0
0
204
204
204
204
204
204
0
0
0
0
0
0
0
0
0
204
204
204
0
0
0
0
0
0
204
204
204
204
204
204
0
0
0
0
0
0
0
0
0
204
204
204
0
0
0
0
0
0
0
0
0
0
0
0
255
255
255
255
255
255
0
0
0
0
0
0
0
0
0
204
204
204
0
0
0
0
0
0
204
204
204
0
0
0
0
0
0
0
0
0
204
204
204
204
204
204
0
0
0
0
0
0
204
204
204
0
0
0
0
0
0
0
0
0
204
204
204
0
0
0
204
204
204
204
204
204
0
0
0
0
0
0
0
0
0
204
204
204
0
0
0
204
204
204
0
0
0
0
0
0
204
204
204
0
0
0
0
0
0
0
0
0
204
204
204
204
204
204
0
0
0
0
0
0
204
204
204
0
0
0
0
0
0
0
0
0
204
204
204
204
204
204
0
0
0
0
0
0
204
204
204
0
0
0
0
0
0
0
0
0
204
204
204
204
204
204
0
0
0
0
0
0
204
204
204
0
0
0
0
0
0
0
0
0
204
204
204
0
0
0
0
0
0
255
255
255
0
0
0
0
0
0
255
255
255
0
0
0
0
0
0
204
204
204
0
0
0
0
0
0
0
0
0
0
0
0
0
0
0
0
0
0
204
204
204
204
204
204
0
0
0
0
0
0
0
0
0
0
0
0
0
0
0
0
0
0
204
204
204
204
204
204
0
0
0
0
0
0
204
204
204
0
0
0
0
0
0
0
0
0
204
204
204
204
204
204
0
0
0
0
0
0
0
0
0
0
0
0
0
0
0
0
0
0
204
204
204
204
204
204
0
0
0
0
0
0
0
0
0
0
0
0
0
0
0
0
0
0
204
204
204
204
204
204
0
0
0
0
0
0
0
0
0
0
0
0
0
0
0
0
0
0
204
204
204
204
204
204
0
0
0
0
0
0
0
0
0
0
0
0
0
0
0
0
0
0
204
204
204
0
0
0
0
0
0
0
0
0
0
0
0
0
0
0
255
255
255
0
0
0
0
0
0
0
0
0
204
204
204
204
204
204
204
204
204
204
204
204
204
204
204
204
204
204
0
0
0
0
0
0
204
204
204
204
204
204
204
204
204
204
204
204
204
204
204
204
204
204
0
0
0
204
204
204
0
0
0
0
0
0
0
0
0
0
0
0
0
0
0
0
0
0
204
204
204
0
0
0
204
204
204
204
204
204
204
204
204
204
204
204
204
204
204
204
204
204
0
0
0
0
0
0
204
204
204
204
204
204
204
204
204
255
245
0
204
204
204
204
204
204
0
0
0
0
0
0
204
204
204
204
204
204
204
204
204
255
245
0
204
204
204
204
204
204
0
0
0
0
0
0
204
204
204
204
204
204
204
204
204
255
245
0
204
204
204
204
204
204
0
0
0
0
0
0
0
0
0
0
0
0
0
0
0
255
255
255
0
0
0
0
0
0
0
0
0
0
0
0
0
0
0
0
0
0
0
0
0
0
0
0
255
255
255
0
0
0
0
0
0
0
0
0
0
0
0
255
255
255
0
0
0
255
255
255
0
0
0
255
255
255
0
0
0
0
0
0
204
204
204
255
255
255
204
204
204
255
255
255
204
204
204
255
255
255
0
0
0
0
0
0
0
0
0
255
255
255
0
0
0
255
255
255
0
0
0
255
255
255
0
0
0
0
0
0
0
0
0
0
0
0
255
245
0
0
0
0
0
0
0
0
0
0
0
0
0
0
0
0
0
0
0
0
0
0
255
245
0
0
0
0
0
0
0
0
0
0
0
0
0
0
0
0
0
0
0
0
0
0
255
245
0
0
0
0
0
0
0
0
0
0
0
0
0
0
0
0
0
0
0
0
0
0
255
255
255
0
0
0
0
0
0
0
0
0
0
0
0
0
0
0
0
0
0
0
0
0
255
255
255
0
0
0
0
0
0
0
0
0
0
0
0
0
0
0
255
255
255
0
0
0
255
255
255
0
0
0
255
255
255
0
0
0
0
0
0
0
0
0
255
255
255
0
0
0
255
255
255
0
0
0
255
255
255
0
0
0
0
0
0
0
0
0
255
255
255
0
0
0
255
255
255
0
0
0
255
255
255
0
0
0
0
0
0
0
0
0
0
0
0
255
245
0
255
245
0
0
0
0
0
0
0
0
0
0
0
0
0
0
0
0
0
0
0
255
245
0
255
245
0
0
0
0
0
0
0
0
0
0
0
0
0
0
0
0
0
0
0
255
245
0
255
245
0
0
0
0
0
0
0
0
0
0
0
0
0
0
0
0
0
0
0
0
0
0
0
0
0
0
0
0
0
0
0
0
0
0
0
0
0
0
0
0
255
255
255
0
0
0
0
0
0
255
255
255
0
0
0
0
0
0
0
0
0
255
255
255
0
0
0
255
255
255
0
0
0
255
255
255
0
0
0
0
0
0
0
0
0
255
255
255
0
0
0
255
255
255
0
0
0
255
255
255
0
0
0
0
0
0
0
0
0
255
255
255
0
0
0
255
255
255
0
0
0
255
255
255
0
0
0
0
0
0
0
0
0
0
0
0
0
0
0
255
245
0
0
0
0
255
245
0
0
0
0
0
0
0
0
0
0
0
0
0
0
0
0
255
245
0
0
0
0
255
245
0
0
0
0
0
0
0
0
0
0
0
0
0
0
0
0
255
245
0
0
0
0
255
245
0
0
0
0
0
0
0
0
0
0
0
0
0
0
0
0
0
0
0
255
255
255
0
0
0
0
0
0
0
0
0
0
0
0
