P3
# CREATOR: GIMP PNM Filter Version 1.1
64 64
255
0
0
0
0
0
0
0
0
0
0
0
0
0
0
0
0
0
0
0
0
0
0
0
0
0
0
0
0
0
0
0
0
0
0
0
0
0
0
0
0
0
0
0
0
0
0
0
0
0
0
0
0
0
0
0
0
0
0
0
0
0
0
0
0
0
0
0
0
0
0
0
0
0
0
0
0
0
0
0
0
0
0
0
0
0
0
0
0
0
0
0
0
0
0
0
0
0
0
0
0
0
0
0
0
0
0
0
0
0
0
0
0
0
0
0
0
0
0
0
0
0
0
0
0
0
0
0
0
0
0
0
0
0
0
0
0
0
0
0
0
0
0
0
0
0
0
0
0
0
0
0
0
0
0
0
0
0
0
0
0
0
0
0
0
0
0
0
0
0
0
0
0
0
0
0
0
0
0
0
0
0
0
0
0
0
0
0
0
0
0
0
0
0
0
0
255
0
0
0
0
0
0
0
0
0
0
0
255
0
0
255
0
0
0
0
0
255
0
0
255
0
0
255
0
0
0
0
0
255
0
0
255
0
0
0
0
0
0
0
0
255
0
0
255
0
0
255
0
0
0
0
0
255
0
0
255
0
0
255
0
0
0
0
0
255
0
0
255
0
0
255
0
0
0
0
0
255
0
0
255
0
0
255
0
0
0
0
0
255
101
0
255
101
0
255
101
0
0
0
0
0
0
0
255
101
0
255
101
0
0
0
0
255
101
0
255
101
0
255
101
0
0
0
0
255
101
0
255
101
0
255
101
0
0
0
0
255
101
0
255
101
0
255
101
0
0
0
0
0
0
0
255
101
0
0
0
0
0
0
0
255
101
0
255
101
0
255
101
0
0
0
0
255
101
0
255
101
0
255
101
0
0
0
0
0
0
0
255
0
0
0
0
0
0
0
0
255
0
0
0
0
0
255
0
0
0
0
0
0
0
0
0
0
0
255
0
0
0
0
0
255
0
0
0
0
0
255
0
0
0
0
0
0
0
0
0
0
0
255
0
0
0
0
0
255
0
0
0
0
0
255
0
0
0
0
0
0
0
0
0
0
0
255
0
0
0
0
0
255
0
0
0
0
0
255
0
0
0
0
0
0
0
0
0
0
0
255
101
0
0
0
0
255
101
0
0
0
0
0
0
0
0
0
0
0
0
0
0
0
0
255
101
0
0
0
0
255
101
0
0
0
0
0
0
0
0
0
0
0
0
0
0
0
0
255
101
0
0
0
0
0
0
0
255
101
0
0
0
0
0
0
0
0
0
0
0
0
0
255
101
0
0
0
0
0
0
0
0
0
0
255
101
0
0
0
0
255
0
0
0
0
0
0
0
0
0
0
0
255
0
0
0
0
0
255
0
0
0
0
0
0
0
0
255
0
0
0
0
0
0
0
0
255
0
0
0
0
0
255
0
0
0
0
0
0
0
0
255
0
0
0
0
0
0
0
0
0
0
0
255
0
0
0
0
0
0
0
0
0
0
0
255
0
0
0
0
0
0
0
0
0
0
0
0
0
0
255
0
0
0
0
0
0
0
0
255
101
0
0
0
0
0
0
0
255
101
0
0
0
0
0
0
0
0
0
0
0
0
0
255
101
0
0
0
0
0
0
0
255
101
0
255
101
0
0
0
0
0
0
0
0
0
0
255
101
0
0
0
0
0
0
0
255
101
0
0
0
0
0
0
0
0
0
0
0
0
0
255
101
0
0
0
0
0
0
0
0
0
0
255
101
0
0
0
0
0
0
0
255
0
0
0
0
0
255
0
0
0
0
0
255
0
0
0
0
0
255
0
0
0
0
0
0
0
0
0
0
0
255
0
0
0
0
0
0
0
0
255
0
0
255
0
0
0
0
0
0
0
0
0
0
0
255
0
0
0
0
0
255
0
0
0
0
0
255
0
0
0
0
0
0
0
0
0
0
0
255
0
0
0
0
0
0
0
0
255
0
0
0
0
0
0
0
0
0
0
0
0
0
0
255
101
0
0
0
0
255
101
0
255
101
0
0
0
0
0
0
0
0
0
0
0
0
0
255
101
0
0
0
0
0
0
0
0
0
0
255
101
0
0
0
0
0
0
0
0
0
0
255
101
0
0
0
0
255
101
0
0
0
0
255
101
0
0
0
0
0
0
0
0
0
0
255
101
0
0
0
0
0
0
0
0
0
0
255
101
0
0
0
0
255
0
0
255
0
0
255
0
0
0
0
0
255
0
0
0
0
0
255
0
0
0
0
0
0
0
0
0
0
0
255
0
0
0
0
0
0
0
0
0
0
0
255
0
0
0
0
0
0
0
0
0
0
0
255
0
0
0
0
0
255
0
0
0
0
0
255
0
0
0
0
0
0
0
0
0
0
0
255
0
0
0
0
0
255
0
0
0
0
0
0
0
0
0
0
0
0
0
0
0
0
0
255
101
0
0
0
0
255
101
0
0
0
0
255
101
0
0
0
0
0
0
0
0
0
0
255
101
0
0
0
0
0
0
0
0
0
0
255
101
0
0
0
0
0
0
0
0
0
0
255
101
0
0
0
0
255
101
0
255
101
0
255
101
0
0
0
0
0
0
0
0
0
0
255
101
0
0
0
0
0
0
0
0
0
0
255
101
0
0
0
0
0
0
0
0
0
0
255
0
0
0
0
0
255
0
0
255
0
0
0
0
0
0
0
0
255
0
0
255
0
0
0
0
0
0
0
0
255
0
0
255
0
0
0
0
0
0
0
0
255
0
0
255
0
0
0
0
0
0
0
0
255
0
0
255
0
0
255
0
0
0
0
0
255
0
0
255
0
0
0
0
0
0
0
0
255
0
0
0
0
0
0
0
0
0
0
0
255
101
0
255
101
0
0
0
0
0
0
0
255
101
0
255
101
0
255
101
0
0
0
0
255
101
0
255
101
0
0
0
0
0
0
0
255
101
0
255
101
0
0
0
0
0
0
0
255
101
0
255
101
0
0
0
0
0
0
0
0
0
0
0
0
0
255
101
0
0
0
0
255
101
0
255
101
0
0
0
0
0
0
0
255
101
0
255
101
0
0
0
0
0
0
0
0
0
0
0
0
0
0
0
0
0
0
0
0
0
0
0
0
0
0
0
0
0
0
0
0
0
0
0
0
0
0
0
0
0
0
0
0
0
0
0
0
0
0
0
0
0
0
0
0
0
0
0
0
0
0
0
0
0
0
0
0
0
0
0
0
0
0
0
0
0
0
0
0
0
0
0
0
0
0
0
0
0
0
0
0
0
0
0
0
0
0
0
0
0
0
0
0
0
0
0
0
0
0
0
0
0
0
0
0
0
0
0
0
0
0
0
0
0
0
0
0
0
0
0
0
0
0
0
0
0
0
0
0
0
0
0
0
0
0
0
0
0
0
0
0
0
0
0
0
0
0
0
0
0
0
0
0
0
0
0
0
0
0
0
0
0
0
0
0
0
0
0
0
0
0
0
0
0
0
0
0
0
0
0
0
0
0
0
0
0
0
0
0
0
0
0
0
0
0
0
0
0
0
0
0
0
0
0
0
0
0
0
0
0
0
0
0
0
0
0
0
0
0
0
0
0
0
0
0
0
0
0
0
0
0
0
0
0
0
0
0
0
0
0
0
0
0
0
0
0
0
0
0
0
0
0
0
0
0
0
0
0
0
0
0
0
0
0
0
0
0
0
0
0
0
0
0
0
0
0
0
0
0
0
0
0
0
0
0
0
0
0
0
0
0
0
0
0
0
0
0
0
0
0
0
0
0
0
0
0
0
0
0
0
0
0
0
0
0
0
0
0
0
0
0
0
0
0
0
0
0
0
0
0
0
0
0
0
0
0
0
0
0
0
0
0
0
0
0
0
0
0
0
0
0
0
0
0
0
0
0
0
0
0
0
0
0
0
0
0
0
0
0
0
0
0
0
0
0
0
0
0
0
0
255
101
0
255
101
0
255
101
0
0
0
0
255
101
0
255
101
0
0
0
0
0
0
0
255
101
0
255
101
0
255
101
0
0
0
0
255
101
0
255
101
0
0
0
0
0
0
0
255
173
0
255
173
0
255
173
0
0
0
0
0
0
0
255
173
0
255
173
0
0
0
0
255
173
0
255
173
0
0
0
0
0
0
0
255
173
0
255
173
0
0
0
0
0
0
0
255
173
0
255
173
0
0
0
0
0
0
0
255
173
0
255
173
0
255
173
0
0
0
0
255
173
0
255
173
0
0
0
0
0
0
0
255
173
0
255
173
0
255
173
0
0
0
0
255
173
0
255
173
0
0
0
0
0
0
0
0
0
0
255
173
0
255
173
0
0
0
0
255
173
0
255
173
0
0
0
0
0
0
0
255
173
0
255
173
0
255
173
0
0
0
0
0
0
0
0
0
0
255
101
0
0
0
0
255
101
0
0
0
0
255
101
0
0
0
0
0
0
0
0
0
0
255
101
0
0
0
0
0
0
0
255
101
0
0
0
0
0
0
0
0
0
0
0
0
0
255
173
0
0
0
0
255
173
0
0
0
0
255
173
0
0
0
0
255
173
0
0
0
0
255
173
0
0
0
0
255
173
0
0
0
0
255
173
0
0
0
0
255
173
0
0
0
0
255
173
0
0
0
0
255
173
0
0
0
0
255
173
0
0
0
0
255
173
0
0
0
0
255
173
0
0
0
0
255
173
0
0
0
0
255
173
0
0
0
0
255
173
0
0
0
0
255
173
0
0
0
0
255
173
0
0
0
0
0
0
0
0
0
0
255
173
0
0
0
0
255
173
0
0
0
0
255
173
0
0
0
0
0
0
0
0
0
0
0
0
0
255
101
0
0
0
0
0
0
0
0
0
0
0
0
0
255
101
0
0
0
0
0
0
0
255
101
0
0
0
0
0
0
0
0
0
0
255
101
0
0
0
0
0
0
0
0
0
0
255
173
0
0
0
0
0
0
0
255
173
0
0
0
0
255
173
0
0
0
0
0
0
0
0
0
0
255
173
0
0
0
0
255
173
0
0
0
0
255
173
0
0
0
0
0
0
0
0
0
0
255
173
0
0
0
0
0
0
0
255
173
0
0
0
0
0
0
0
0
0
0
0
0
0
255
173
0
0
0
0
0
0
0
0
0
0
255
173
0
0
0
0
0
0
0
0
0
0
255
173
0
0
0
0
255
173
0
0
0
0
0
0
0
0
0
0
0
0
0
0
0
0
255
173
0
0
0
0
255
173
0
255
173
0
0
0
0
0
0
0
0
0
0
0
0
0
255
101
0
0
0
0
0
0
0
255
101
0
0
0
0
0
0
0
0
0
0
0
0
0
255
101
0
0
0
0
0
0
0
255
101
0
0
0
0
0
0
0
0
0
0
0
0
0
255
173
0
0
0
0
255
173
0
0
0
0
255
173
0
0
0
0
0
0
0
255
173
0
0
0
0
0
0
0
0
0
0
255
173
0
255
173
0
0
0
0
0
0
0
255
173
0
0
0
0
0
0
0
255
173
0
0
0
0
255
173
0
0
0
0
0
0
0
255
173
0
0
0
0
0
0
0
0
0
0
255
173
0
0
0
0
0
0
0
0
0
0
255
173
0
0
0
0
0
0
0
255
173
0
255
173
0
0
0
0
0
0
0
0
0
0
255
173
0
0
0
0
0
0
0
0
0
0
0
0
0
255
173
0
0
0
0
0
0
0
0
0
0
255
101
0
0
0
0
255
101
0
0
0
0
0
0
0
0
0
0
0
0
0
0
0
0
255
101
0
0
0
0
0
0
0
255
101
0
0
0
0
0
0
0
0
0
0
0
0
0
255
173
0
0
0
0
255
173
0
0
0
0
255
173
0
0
0
0
255
173
0
0
0
0
0
0
0
0
0
0
0
0
0
0
0
0
255
173
0
0
0
0
255
173
0
0
0
0
0
0
0
0
0
0
255
173
0
0
0
0
255
173
0
0
0
0
255
173
0
0
0
0
0
0
0
0
0
0
255
173
0
0
0
0
0
0
0
0
0
0
255
173
0
0
0
0
0
0
0
0
0
0
255
173
0
0
0
0
255
173
0
0
0
0
255
173
0
0
0
0
0
0
0
0
0
0
0
0
0
0
0
0
255
173
0
0
0
0
255
101
0
255
101
0
0
0
0
0
0
0
255
101
0
255
101
0
255
101
0
0
0
0
255
101
0
255
101
0
0
0
0
0
0
0
255
101
0
255
101
0
255
101
0
0
0
0
255
173
0
255
173
0
0
0
0
0
0
0
255
173
0
255
173
0
0
0
0
0
0
0
255
173
0
255
173
0
255
173
0
0
0
0
255
173
0
255
173
0
0
0
0
0
0
0
255
173
0
255
173
0
255
173
0
0
0
0
255
173
0
255
173
0
255
173
0
0
0
0
255
173
0
255
173
0
255
173
0
0
0
0
255
173
0
0
0
0
0
0
0
0
0
0
255
173
0
255
173
0
255
173
0
0
0
0
255
173
0
255
173
0
255
173
0
0
0
0
255
173
0
255
173
0
255
173
0
0
0
0
255
173
0
255
173
0
0
0
0
0
0
0
0
0
0
0
0
0
0
0
0
0
0
0
0
0
0
0
0
0
0
0
0
0
0
0
0
0
0
0
0
0
0
0
0
0
0
0
0
0
0
0
0
0
0
0
0
0
0
0
0
0
0
0
0
0
0
0
0
0
0
0
0
0
0
0
0
0
0
0
0
0
0
0
0
0
0
0
0
0
0
0
0
0
0
0
0
0
0
0
0
0
0
0
0
0
0
0
0
0
0
0
0
0
0
0
0
0
0
0
0
0
0
0
0
0
0
0
0
0
0
0
0
0
0
0
0
0
0
0
0
0
0
0
0
0
0
0
0
0
0
0
0
0
0
0
0
0
0
0
0
0
0
0
0
0
0
0
0
0
0
0
0
0
0
0
0
0
0
0
0
0
0
0
0
0
0
0
0
0
0
0
0
0
0
0
0
0
0
0
0
0
0
0
0
0
0
0
0
0
0
0
0
0
0
0
0
0
0
0
0
0
0
0
0
0
0
0
0
0
0
0
0
0
0
0
0
0
0
0
0
0
0
0
0
0
0
0
0
0
0
0
0
0
0
0
0
0
0
0
0
0
0
0
0
0
0
0
0
0
0
0
0
0
0
0
0
0
0
0
0
0
0
0
0
0
0
0
0
0
0
0
0
0
0
0
0
0
0
0
0
0
0
0
0
0
0
0
0
0
0
0
0
0
0
0
0
0
0
0
0
0
0
0
0
0
0
0
0
0
0
0
0
0
0
0
0
0
0
0
0
0
0
0
0
0
0
0
0
0
0
0
0
0
0
0
0
0
0
0
0
0
0
0
0
0
0
0
0
0
0
0
0
0
0
0
0
0
0
0
0
0
0
0
0
0
0
0
0
0
0
0
0
0
0
0
255
245
0
255
245
0
0
0
0
0
0
0
0
0
0
255
245
0
0
0
0
0
0
0
255
245
0
255
245
0
0
0
0
0
0
0
255
245
0
255
245
0
255
245
0
0
0
0
255
245
0
255
245
0
0
0
0
0
0
0
255
245
0
255
245
0
0
0
0
0
0
0
255
245
0
255
245
0
0
0
0
0
0
0
255
245
0
255
245
0
0
0
0
0
0
0
255
245
0
255
245
0
0
0
0
0
0
0
0
0
0
255
245
0
255
245
0
0
0
0
207
255
0
207
255
0
0
0
0
0
0
0
207
255
0
207
255
0
0
0
0
0
0
0
207
255
0
207
255
0
0
0
0
0
0
0
207
255
0
207
255
0
207
255
0
0
0
0
207
255
0
207
255
0
0
0
0
0
0
0
207
255
0
207
255
0
207
255
0
0
0
0
255
245
0
0
0
0
255
245
0
0
0
0
0
0
0
255
245
0
0
0
0
0
0
0
255
245
0
0
0
0
255
245
0
0
0
0
0
0
0
0
0
0
255
245
0
0
0
0
255
245
0
0
0
0
255
245
0
0
0
0
255
245
0
0
0
0
255
245
0
0
0
0
255
245
0
0
0
0
255
245
0
0
0
0
0
0
0
255
245
0
0
0
0
0
0
0
255
245
0
0
0
0
255
245
0
0
0
0
255
245
0
0
0
0
255
245
0
0
0
0
0
0
0
207
255
0
0
0
0
0
0
0
207
255
0
0
0
0
207
255
0
0
0
0
0
0
0
207
255
0
0
0
0
0
0
0
207
255
0
0
0
0
207
255
0
0
0
0
0
0
0
207
255
0
0
0
0
0
0
0
207
255
0
0
0
0
207
255
0
0
0
0
0
0
0
0
0
0
255
245
0
0
0
0
255
245
0
0
0
0
0
0
0
0
0
0
0
0
0
0
0
0
255
245
0
0
0
0
0
0
0
255
245
0
0
0
0
0
0
0
0
0
0
0
0
0
255
245
0
0
0
0
0
0
0
0
0
0
255
245
0
0
0
0
0
0
0
0
0
0
255
245
0
0
0
0
0
0
0
255
245
0
0
0
0
0
0
0
0
0
0
0
0
0
255
245
0
0
0
0
255
245
0
0
0
0
255
245
0
0
0
0
0
0
0
207
255
0
0
0
0
0
0
0
207
255
0
0
0
0
207
255
0
0
0
0
0
0
0
207
255
0
0
0
0
0
0
0
0
0
0
207
255
0
0
0
0
0
0
0
0
0
0
207
255
0
0
0
0
0
0
0
0
0
0
0
0
0
207
255
0
0
0
0
0
0
0
255
245
0
0
0
0
0
0
0
255
245
0
0
0
0
255
245
0
0
0
0
0
0
0
255
245
0
0
0
0
0
0
0
0
0
0
0
0
0
255
245
0
0
0
0
0
0
0
255
245
0
0
0
0
0
0
0
0
0
0
255
245
0
0
0
0
0
0
0
0
0
0
255
245
0
0
0
0
0
0
0
0
0
0
255
245
0
0
0
0
0
0
0
0
0
0
255
245
0
0
0
0
0
0
0
255
245
0
0
0
0
255
245
0
0
0
0
0
0
0
207
255
0
0
0
0
0
0
0
0
0
0
207
255
0
207
255
0
0
0
0
0
0
0
207
255
0
0
0
0
0
0
0
207
255
0
0
0
0
207
255
0
0
0
0
0
0
0
207
255
0
0
0
0
0
0
0
0
0
0
207
255
0
0
0
0
0
0
0
255
245
0
0
0
0
0
0
0
0
0
0
255
245
0
255
245
0
255
245
0
0
0
0
255
245
0
0
0
0
0
0
0
0
0
0
0
0
0
0
0
0
255
245
0
0
0
0
255
245
0
0
0
0
0
0
0
0
0
0
255
245
0
0
0
0
0
0
0
0
0
0
255
245
0
0
0
0
0
0
0
0
0
0
0
0
0
255
245
0
0
0
0
0
0
0
255
245
0
0
0
0
0
0
0
0
0
0
255
245
0
0
0
0
255
245
0
0
0
0
0
0
0
207
255
0
0
0
0
0
0
0
0
0
0
0
0
0
207
255
0
0
0
0
0
0
0
207
255
0
0
0
0
0
0
0
207
255
0
0
0
0
207
255
0
0
0
0
0
0
0
207
255
0
0
0
0
0
0
0
207
255
0
0
0
0
0
0
0
0
0
0
255
245
0
255
245
0
255
245
0
0
0
0
0
0
0
0
0
0
255
245
0
0
0
0
255
245
0
255
245
0
255
245
0
0
0
0
255
245
0
255
245
0
0
0
0
0
0
0
255
245
0
255
245
0
255
245
0
0
0
0
255
245
0
255
245
0
255
245
0
0
0
0
255
245
0
255
245
0
255
245
0
0
0
0
255
245
0
255
245
0
255
245
0
0
0
0
255
245
0
255
245
0
255
245
0
0
0
0
255
245
0
255
245
0
0
0
0
0
0
0
207
255
0
207
255
0
207
255
0
0
0
0
207
255
0
207
255
0
0
0
0
0
0
0
207
255
0
207
255
0
207
255
0
0
0
0
207
255
0
207
255
0
207
255
0
0
0
0
207
255
0
207
255
0
207
255
0
0
0
0
207
255
0
0
0
0
0
0
0
0
0
0
0
0
0
0
0
0
0
0
0
0
0
0
0
0
0
0
0
0
0
0
0
0
0
0
0
0
0
0
0
0
0
0
0
0
0
0
0
0
0
0
0
0
0
0
0
0
0
0
0
0
0
0
0
0
0
0
0
0
0
0
0
0
0
0
0
0
0
0
0
0
0
0
0
0
0
0
0
0
0
0
0
0
0
0
0
0
0
0
0
0
0
0
0
0
0
0
0
0
0
0
0
0
0
0
0
0
0
0
0
0
0
0
0
0
0
0
0
0
0
0
0
0
0
0
0
0
0
0
0
0
0
0
0
0
0
0
0
0
0
0
0
0
0
0
0
0
0
0
0
0
0
0
0
0
0
0
0
0
0
0
0
0
0
0
0
0
0
0
0
0
0
0
0
0
0
0
0
0
0
0
0
0
0
0
0
0
0
0
0
0
0
0
0
0
0
0
0
0
0
0
0
0
0
0
0
0
0
0
0
0
0
0
0
0
0
0
0
0
0
0
0
0
0
0
0
0
0
0
0
0
0
0
0
0
0
0
0
0
0
0
0
0
0
0
0
0
0
0
0
0
0
0
0
0
0
0
0
0
0
0
0
0
0
0
0
0
0
0
0
0
0
0
0
0
0
0
0
0
0
0
0
0
0
0
0
0
0
0
0
0
0
0
0
0
0
0
0
0
0
0
0
0
0
0
0
0
0
0
0
0
0
0
0
0
0
0
0
0
0
0
0
0
0
0
0
0
0
0
0
0
0
0
0
0
0
0
0
0
0
0
0
0
0
0
0
0
0
0
0
0
0
0
0
0
0
0
0
0
0
0
0
0
0
0
0
0
0
0
0
0
0
0
0
0
0
0
0
0
0
0
0
0
0
0
207
255
0
207
255
0
0
0
0
0
0
0
0
0
0
207
255
0
207
255
0
0
0
0
207
255
0
207
255
0
0
0
0
0
0
0
207
255
0
207
255
0
207
255
0
0
0
0
0
255
53
0
255
53
0
0
0
0
0
0
0
0
0
0
255
53
0
0
0
0
0
0
0
255
53
0
255
53
0
0
0
0
0
0
0
255
53
0
255
53
0
255
53
0
0
0
0
255
53
0
255
53
0
0
0
0
0
0
0
255
53
0
255
53
0
0
0
0
0
0
0
255
53
0
255
53
0
0
0
0
0
0
0
255
53
0
255
53
0
0
0
0
0
0
0
255
53
0
255
53
0
0
0
0
0
0
0
0
0
0
255
53
0
255
53
0
0
0
0
0
0
0
0
0
0
0
0
0
0
0
0
255
255
0
255
255
0
0
0
0
0
0
0
0
0
207
255
0
0
0
0
0
0
0
207
255
0
0
0
0
0
0
0
0
0
0
0
0
0
207
255
0
0
0
0
0
0
0
207
255
0
0
0
0
0
0
0
0
0
0
0
0
0
0
255
53
0
0
0
0
0
0
0
0
0
0
255
53
0
0
0
0
0
0
0
0
0
0
255
53
0
0
0
0
0
0
0
0
0
0
0
0
0
255
53
0
0
0
0
0
0
0
255
53
0
0
0
0
0
0
0
255
53
0
0
0
0
255
53
0
0
0
0
0
0
0
255
53
0
0
0
0
0
0
0
0
0
0
255
53
0
0
0
0
0
0
0
0
0
0
255
53
0
0
0
0
0
0
0
255
53
0
0
0
0
255
53
0
0
0
0
0
0
0
0
0
0
0
0
0
0
0
0
255
255
0
0
0
0
255
255
0
0
0
0
0
0
207
255
0
0
0
0
0
0
0
207
255
0
0
0
0
0
0
0
0
0
0
0
0
0
207
255
0
0
0
0
0
0
0
207
255
0
207
255
0
0
0
0
0
0
0
0
0
0
0
255
53
0
0
0
0
0
0
0
255
53
0
0
0
0
0
0
0
0
0
0
0
0
0
255
53
0
0
0
0
0
0
0
0
0
0
255
53
0
0
0
0
0
0
0
0
0
0
255
53
0
0
0
0
0
0
0
0
0
0
0
0
0
255
53
0
0
0
0
0
0
0
255
53
0
0
0
0
0
0
0
0
0
0
255
53
0
0
0
0
0
0
0
0
0
0
255
53
0
0
0
0
0
0
0
255
53
0
0
0
0
255
53
0
0
0
0
0
0
0
255
255
0
0
0
0
0
0
0
255
255
0
0
0
0
255
255
0
0
0
0
0
0
207
255
0
0
0
0
0
0
0
207
255
0
207
255
0
0
0
0
0
0
0
0
0
0
207
255
0
0
0
0
0
0
0
0
0
0
0
0
0
207
255
0
0
0
0
0
0
0
0
255
53
0
0
0
0
0
0
0
255
53
0
0
0
0
255
53
0
0
0
0
0
0
0
255
53
0
0
0
0
0
0
0
0
0
0
0
0
0
255
53
0
0
0
0
0
0
0
255
53
0
0
0
0
0
0
0
0
0
0
255
53
0
0
0
0
0
0
0
0
0
0
255
53
0
0
0
0
0
0
0
0
0
0
255
53
0
0
0
0
0
0
0
0
0
0
255
53
0
0
0
0
0
0
0
255
53
0
0
0
0
255
53
0
0
0
0
255
255
0
255
255
0
255
255
0
0
0
0
0
0
0
255
255
0
255
255
0
0
0
0
0
0
207
255
0
0
0
0
0
0
0
207
255
0
0
0
0
207
255
0
0
0
0
0
0
0
207
255
0
0
0
0
0
0
0
0
0
0
0
0
0
207
255
0
0
0
0
0
0
0
0
255
53
0
0
0
0
0
0
0
255
53
0
255
53
0
255
53
0
0
0
0
0
0
0
255
53
0
0
0
0
0
0
0
0
0
0
0
0
0
255
53
0
0
0
0
0
0
0
255
53
0
0
0
0
0
0
0
255
53
0
0
0
0
0
0
0
0
0
0
0
0
0
255
53
0
0
0
0
0
0
0
0
0
0
255
53
0
0
0
0
0
0
0
0
0
0
255
53
0
0
0
0
0
0
0
255
53
0
0
0
0
255
53
0
0
0
0
0
0
0
255
255
0
0
0
0
0
0
0
0
0
0
0
0
0
255
255
0
0
0
207
255
0
207
255
0
207
255
0
0
0
0
207
255
0
207
255
0
207
255
0
0
0
0
207
255
0
207
255
0
207
255
0
0
0
0
207
255
0
207
255
0
0
0
0
0
0
0
0
255
53
0
255
53
0
255
53
0
0
0
0
0
0
0
0
0
0
255
53
0
0
0
0
255
53
0
255
53
0
255
53
0
0
0
0
255
53
0
255
53
0
0
0
0
0
0
0
255
53
0
255
53
0
255
53
0
0
0
0
255
53
0
255
53
0
255
53
0
0
0
0
255
53
0
255
53
0
255
53
0
0
0
0
255
53
0
255
53
0
255
53
0
0
0
0
255
53
0
255
53
0
255
53
0
0
0
0
255
53
0
255
53
0
0
0
0
0
0
0
0
0
0
0
0
0
0
0
0
0
0
0
255
255
0
255
255
0
0
0
0
0
0
0
0
0
0
0
0
0
0
0
0
0
0
0
0
0
0
0
0
0
0
0
0
0
0
0
0
0
0
0
0
0
0
0
0
0
0
0
0
0
0
0
0
0
0
0
0
0
0
0
0
0
0
0
0
0
0
0
0
0
0
0
0
0
0
0
0
0
0
0
0
0
0
0
0
0
0
0
0
0
0
0
0
0
0
0
0
0
0
0
0
0
0
0
0
0
0
0
0
0
0
0
0
0
0
0
0
0
0
0
0
0
0
0
0
0
0
0
0
0
0
0
0
0
0
0
0
0
0
0
0
0
0
0
0
0
0
0
0
0
0
0
0
0
0
0
0
0
0
0
0
0
0
0
0
0
0
0
0
0
0
0
0
0
0
0
0
0
0
0
0
0
0
0
0
0
0
0
0
0
0
0
0
0
0
0
0
0
0
0
0
0
0
0
0
0
0
0
0
0
0
0
0
0
0
0
0
0
0
0
0
0
0
0
0
0
0
0
0
0
0
0
0
0
0
0
0
0
0
0
0
0
0
0
0
0
0
0
0
0
0
0
0
0
0
0
0
0
0
0
0
0
0
0
0
0
0
0
0
0
0
0
0
0
0
0
0
0
0
0
0
0
0
0
0
0
0
0
0
0
0
0
0
0
0
0
0
0
0
0
0
0
0
0
0
0
0
0
0
0
0
0
0
0
0
0
0
0
0
0
0
0
0
0
0
0
0
0
0
0
0
0
0
0
0
0
0
0
0
0
0
0
0
0
0
0
0
0
0
0
0
0
0
0
0
0
0
0
0
0
0
0
0
0
0
0
0
0
0
0
0
0
0
0
0
0
0
0
0
0
0
0
0
0
0
0
0
0
0
0
0
0
0
0
0
0
0
0
0
0
0
0
0
0
0
0
0
0
255
255
0
255
255
0
255
255
0
0
0
0
0
0
0
0
0
0
0
0
0
0
0
0
255
255
0
255
255
0
255
255
0
0
0
0
0
0
0
0
0
0
0
0
0
0
0
0
0
0
0
255
255
0
255
255
0
0
0
0
0
0
0
0
0
0
0
0
0
0
0
0
255
255
0
255
255
0
255
255
0
0
0
0
0
0
0
0
0
0
0
0
0
0
0
0
0
0
0
212
255
0
0
0
0
0
0
0
0
0
0
0
0
0
0
0
0
0
0
0
212
255
0
212
255
0
212
255
0
0
0
0
0
0
0
0
0
0
0
0
0
0
0
0
212
255
0
212
255
0
0
0
0
0
0
0
0
0
0
0
0
0
0
0
0
0
0
0
212
255
0
212
255
0
0
0
0
0
0
0
0
0
0
0
0
0
0
0
0
0
0
0
255
255
0
0
0
0
255
255
0
0
0
0
0
0
0
0
0
0
0
0
0
0
0
0
255
255
0
0
0
0
255
255
0
0
0
0
0
0
0
0
0
0
0
0
0
0
0
0
255
255
0
0
0
0
0
0
0
0
0
0
0
0
0
0
0
0
0
0
0
0
0
0
255
255
0
0
0
0
0
0
0
0
0
0
0
0
0
0
0
0
0
0
0
0
0
0
0
0
0
212
255
0
0
0
0
0
0
0
0
0
0
0
0
0
0
0
0
0
0
0
0
0
0
0
0
0
212
255
0
0
0
0
0
0
0
0
0
0
0
0
0
0
0
0
212
255
0
0
0
0
212
255
0
0
0
0
0
0
0
0
0
0
0
0
0
0
0
0
0
0
0
212
255
0
0
0
0
0
0
0
0
0
0
255
255
0
0
0
0
0
0
0
0
0
0
255
255
0
0
0
0
0
0
0
0
0
0
255
255
0
0
0
0
0
0
0
0
0
0
0
0
0
255
255
0
0
0
0
0
0
0
255
255
0
0
0
0
0
0
0
255
255
0
0
0
0
0
0
0
0
0
0
0
0
0
255
255
0
0
0
0
0
0
0
255
255
0
255
255
0
0
0
0
0
0
0
0
0
0
212
255
0
0
0
0
0
0
0
212
255
0
0
0
0
0
0
0
0
0
0
0
0
0
212
255
0
0
0
0
0
0
0
0
0
0
212
255
0
0
0
0
0
0
0
0
0
0
212
255
0
0
0
0
0
0
0
0
0
0
0
0
0
212
255
0
0
0
0
0
0
0
212
255
0
0
0
0
0
0
0
0
0
0
212
255
0
0
0
0
0
0
0
255
255
0
255
255
0
255
255
0
0
0
0
255
255
0
0
0
0
255
255
0
0
0
0
255
255
0
255
255
0
255
255
0
0
0
0
0
0
0
255
255
0
0
0
0
0
0
0
255
255
0
255
255
0
255
255
0
0
0
0
255
255
0
255
255
0
0
0
0
0
0
0
255
255
0
255
255
0
255
255
0
0
0
0
0
0
0
0
0
0
255
255
0
0
0
0
212
255
0
212
255
0
212
255
0
0
0
0
212
255
0
0
0
0
212
255
0
0
0
0
212
255
0
212
255
0
212
255
0
0
0
0
0
0
0
0
0
0
212
255
0
0
0
0
212
255
0
212
255
0
212
255
0
0
0
0
0
0
0
212
255
0
0
0
0
0
0
0
212
255
0
212
255
0
212
255
0
0
0
0
0
0
0
212
255
0
0
0
0
0
0
0
0
0
0
255
255
0
0
0
0
0
0
0
255
255
0
0
0
0
255
255
0
0
0
0
0
0
0
255
255
0
0
0
0
0
0
0
255
255
0
0
0
0
0
0
0
0
0
0
0
0
0
255
255
0
0
0
0
0
0
0
255
255
0
0
0
0
255
255
0
0
0
0
0
0
0
255
255
0
0
0
0
0
0
0
0
0
0
0
0
0
255
255
0
0
0
0
0
0
0
212
255
0
0
0
0
0
0
0
212
255
0
212
255
0
212
255
0
0
0
0
0
0
0
212
255
0
0
0
0
0
0
0
0
0
0
0
0
0
212
255
0
0
0
0
0
0
0
212
255
0
0
0
0
0
0
0
212
255
0
0
0
0
0
0
0
0
0
0
0
0
0
212
255
0
0
0
0
0
0
0
0
0
0
212
255
0
0
0
0
0
0
0
0
0
0
0
0
0
0
0
0
0
0
0
255
255
0
255
255
0
255
255
0
0
0
0
0
0
0
0
0
0
0
0
0
0
0
0
255
255
0
0
0
0
0
0
0
0
0
0
0
0
0
0
0
0
0
0
0
0
0
0
255
255
0
255
255
0
255
255
0
0
0
0
0
0
0
0
0
0
0
0
0
0
0
0
255
255
0
255
255
0
0
0
0
0
0
0
0
0
0
0
0
0
0
0
0
0
0
0
0
0
0
0
0
0
212
255
0
0
0
0
0
0
0
0
0
0
0
0
0
0
0
0
212
255
0
212
255
0
0
0
0
0
0
0
0
0
0
0
0
0
0
0
0
0
0
0
212
255
0
212
255
0
212
255
0
0
0
0
0
0
0
0
0
0
0
0
0
0
0
0
212
255
0
212
255
0
212
255
0
0
0
0
0
0
0
0
0
0
0
0
0
0
0
0
0
0
0
0
0
0
0
0
0
0
0
0
0
0
0
0
0
0
0
0
0
0
0
0
0
0
0
0
0
0
0
0
0
0
0
0
0
0
0
0
0
0
0
0
0
0
0
0
0
0
0
0
0
0
0
0
0
0
0
0
0
0
0
0
0
0
0
0
0
0
0
0
0
0
0
0
0
0
0
0
0
0
0
0
0
0
0
0
0
0
0
0
0
0
0
0
0
0
0
0
0
0
0
0
0
0
0
0
0
0
0
0
0
0
0
0
0
0
0
0
0
0
0
0
0
0
0
0
0
0
0
0
0
0
0
0
0
0
0
0
0
0
0
0
0
0
0
0
0
0
0
0
0
0
0
0
0
0
0
0
0
0
0
0
0
0
0
0
0
0
0
0
0
0
0
0
0
0
0
0
0
0
0
0
0
0
0
0
0
0
0
0
0
0
0
0
0
0
0
0
0
0
0
0
0
0
0
0
0
0
0
0
0
0
0
0
0
0
0
0
0
0
0
0
0
0
0
0
0
0
0
0
0
0
0
0
0
0
0
0
0
0
0
0
0
0
0
0
0
0
0
0
0
0
0
0
0
0
0
0
0
0
0
0
0
0
0
0
0
0
0
0
0
0
0
0
0
0
0
0
0
0
0
0
0
0
0
0
0
0
0
0
0
0
0
0
0
0
0
0
0
0
0
0
0
0
0
0
0
0
0
0
0
0
0
0
0
0
0
0
0
0
0
0
0
0
0
0
0
0
0
0
0
0
0
0
0
0
0
0
0
0
0
0
0
0
0
0
0
0
0
0
0
0
0
0
0
0
0
0
0
0
0
0
0
0
0
0
0
0
0
0
0
0
0
0
0
0
0
0
0
0
0
0
212
255
0
212
255
0
0
0
0
0
0
0
0
0
0
0
0
0
0
0
0
0
0
0
108
255
0
108
255
0
0
0
0
0
0
0
0
0
0
0
0
0
0
0
0
0
0
0
108
255
0
108
255
0
0
0
0
0
0
0
0
0
0
0
0
0
0
0
0
0
0
0
108
255
0
108
255
0
108
255
0
0
0
0
0
0
0
0
0
0
0
0
0
0
0
0
0
0
0
108
255
0
0
0
0
0
0
0
0
0
0
0
0
0
0
0
0
0
0
0
108
255
0
108
255
0
108
255
0
0
0
0
0
0
0
0
0
0
0
0
0
0
0
0
0
0
0
0
255
0
0
255
0
0
0
0
0
0
0
0
0
0
0
0
0
0
0
0
0
255
0
0
255
0
0
255
0
0
0
0
0
0
0
0
0
0
0
0
0
212
255
0
0
0
0
212
255
0
0
0
0
0
0
0
0
0
0
0
0
0
0
0
0
0
0
0
0
0
0
108
255
0
0
0
0
0
0
0
0
0
0
0
0
0
0
0
0
0
0
0
108
255
0
0
0
0
108
255
0
0
0
0
0
0
0
0
0
0
0
0
0
0
0
0
0
0
0
0
0
0
108
255
0
0
0
0
0
0
0
0
0
0
0
0
0
0
0
0
0
0
0
108
255
0
0
0
0
0
0
0
0
0
0
0
0
0
0
0
0
0
0
0
108
255
0
0
0
0
0
0
0
0
0
0
0
0
0
0
0
0
0
0
0
0
0
0
0
255
0
0
0
0
0
0
0
0
0
0
0
0
0
0
0
0
0
0
0
0
0
0
0
255
0
0
0
0
0
255
0
0
0
0
0
0
0
0
0
0
0
0
0
212
255
0
0
0
0
212
255
0
0
0
0
0
0
0
0
0
0
0
0
0
0
0
0
0
0
0
0
0
0
108
255
0
0
0
0
0
0
0
0
0
0
0
0
0
0
0
0
0
0
0
0
0
0
0
0
0
108
255
0
0
0
0
0
0
0
0
0
0
0
0
0
0
0
0
0
0
0
108
255
0
0
0
0
0
0
0
0
0
0
0
0
0
0
0
0
0
0
0
108
255
0
0
0
0
0
0
0
0
0
0
0
0
0
0
0
0
0
0
0
0
0
0
108
255
0
108
255
0
0
0
0
0
0
0
0
0
0
0
0
0
0
0
0
0
0
0
0
255
0
0
0
0
0
0
0
0
0
0
0
0
0
0
0
0
0
0
0
0
0
0
0
0
0
0
0
0
0
255
0
0
0
0
0
0
0
0
0
0
0
0
0
212
255
0
0
0
0
212
255
0
0
0
0
0
0
0
108
255
0
108
255
0
108
255
0
0
0
0
0
0
0
108
255
0
0
0
0
0
0
0
108
255
0
108
255
0
108
255
0
0
0
0
0
0
0
108
255
0
0
0
0
0
0
0
108
255
0
108
255
0
108
255
0
0
0
0
0
0
0
0
0
0
108
255
0
0
0
0
108
255
0
108
255
0
108
255
0
0
0
0
108
255
0
0
0
0
108
255
0
0
0
0
108
255
0
108
255
0
108
255
0
0
0
0
0
0
0
0
0
0
108
255
0
0
0
0
0
255
0
0
255
0
0
255
0
0
0
0
0
255
0
0
255
0
0
0
0
0
0
0
0
255
0
0
255
0
0
255
0
0
0
0
0
0
0
0
255
0
0
0
0
0
0
0
0
0
0
0
0
0
0
0
0
212
255
0
0
0
0
212
255
0
0
0
0
0
0
0
0
0
0
0
0
0
0
0
0
0
0
0
0
0
0
108
255
0
0
0
0
0
0
0
0
0
0
0
0
0
0
0
0
0
0
0
108
255
0
0
0
0
0
0
0
0
0
0
0
0
0
0
0
0
0
0
0
0
0
0
0
0
0
0
0
0
108
255
0
0
0
0
0
0
0
0
0
0
0
0
0
0
0
0
108
255
0
108
255
0
108
255
0
0
0
0
0
0
0
0
0
0
0
0
0
0
0
0
0
0
0
0
0
0
108
255
0
0
0
0
0
0
0
0
0
0
0
0
0
0
0
0
0
255
0
0
0
0
0
255
0
0
0
0
0
0
0
0
0
0
0
0
0
0
0
0
0
255
0
0
0
0
0
0
0
0
0
0
0
0
0
0
0
0
0
0
0
212
255
0
212
255
0
0
0
0
0
0
0
0
0
0
0
0
0
0
0
0
0
0
0
0
0
0
108
255
0
108
255
0
108
255
0
0
0
0
0
0
0
0
0
0
0
0
0
0
0
0
108
255
0
108
255
0
108
255
0
0
0
0
0
0
0
0
0
0
0
0
0
0
0
0
108
255
0
108
255
0
0
0
0
0
0
0
0
0
0
0
0
0
0
0
0
0
0
0
0
0
0
0
0
0
108
255
0
0
0
0
0
0
0
0
0
0
0
0
0
0
0
0
108
255
0
108
255
0
0
0
0
0
0
0
0
0
0
0
0
0
0
0
0
0
0
0
0
255
0
0
255
0
0
255
0
0
0
0
0
0
0
0
0
0
0
0
0
0
0
0
0
255
0
0
0
0
0
0
0
0
0
0
0
0
0
0
0
0
0
0
0
0
0
0
0
0
0
0
0
0
0
0
0
0
0
0
0
0
0
0
0
0
0
0
0
0
0
0
0
0
0
0
0
0
0
0
0
0
0
0
0
0
0
0
0
0
0
0
0
0
0
0
0
0
0
0
0
0
0
0
0
0
0
0
0
0
0
0
0
0
0
0
0
0
0
0
0
0
0
0
0
0
0
0
0
0
0
0
0
0
0
0
0
0
0
0
0
0
0
0
0
0
0
0
0
0
0
0
0
0
0
0
0
0
0
0
0
0
0
0
0
0
0
0
0
0
0
0
0
0
0
0
0
0
0
0
0
0
0
0
0
0
0
0
0
0
0
0
0
0
0
0
0
0
0
0
0
0
0
0
0
0
0
0
0
0
0
0
0
0
0
0
0
0
0
0
0
0
0
0
0
0
0
0
0
0
0
0
0
0
0
0
0
0
0
0
0
0
0
0
0
0
0
0
0
0
0
0
0
0
0
0
0
0
0
0
0
0
0
0
0
0
0
0
0
0
0
0
0
0
0
0
0
0
0
0
0
0
0
0
0
0
0
0
0
0
0
0
0
0
0
0
0
0
0
0
0
0
0
0
0
0
0
0
0
0
0
0
0
0
0
0
0
0
0
0
0
0
0
0
0
0
0
0
0
0
0
0
0
0
0
0
0
0
0
0
0
0
0
0
0
0
0
0
0
0
0
0
0
0
0
0
0
0
0
0
0
0
0
0
0
0
0
0
0
0
0
0
0
0
0
0
0
0
0
0
0
0
0
0
0
0
0
0
0
0
0
0
0
0
0
0
0
0
0
0
0
0
0
0
0
0
0
0
0
0
0
0
0
0
0
0
0
0
0
0
0
0
0
0
0
0
0
0
0
0
0
0
0
255
0
0
255
0
0
255
0
0
0
0
0
0
0
0
0
0
0
0
0
0
0
0
0
255
0
0
255
0
0
0
0
0
0
0
0
0
0
0
0
0
0
0
0
0
0
0
0
0
0
0
0
0
0
0
0
0
0
0
0
0
0
0
0
0
0
0
0
0
0
0
0
0
0
0
0
0
0
0
0
0
0
0
0
0
0
0
0
0
0
0
0
0
0
0
0
0
0
0
0
0
0
0
0
0
0
0
0
0
0
0
0
0
0
0
0
0
0
0
0
0
0
0
0
0
0
0
0
0
0
0
0
0
0
0
0
0
0
0
0
0
0
0
0
0
0
0
0
0
0
0
0
0
0
0
0
0
0
0
0
0
0
0
0
0
0
0
0
0
0
0
0
0
0
0
0
0
0
0
0
0
0
0
0
0
0
0
0
0
0
0
0
255
0
0
0
0
0
255
0
0
0
0
0
0
0
0
0
0
0
0
0
0
0
0
0
255
0
0
0
0
0
255
0
0
0
0
0
0
0
0
0
0
0
0
0
0
0
0
0
0
0
0
0
0
0
0
0
0
0
0
0
0
0
0
0
0
0
0
0
0
0
0
0
0
0
0
0
0
0
0
0
0
0
0
0
0
0
0
0
0
0
0
0
0
0
0
0
0
0
0
0
0
0
0
0
0
0
0
0
0
0
0
0
0
0
0
0
0
0
0
0
0
0
0
0
0
0
0
0
0
0
0
0
0
0
0
0
0
0
0
0
0
0
0
0
0
0
0
0
0
0
0
0
0
0
0
0
0
0
0
0
0
0
0
0
0
0
0
0
0
0
0
0
0
0
0
0
0
0
0
0
0
0
0
0
0
0
0
0
0
0
0
0
0
0
0
255
0
0
0
0
0
0
0
0
0
0
0
0
0
0
0
0
0
0
0
0
255
0
0
0
0
0
255
0
0
0
0
0
0
0
0
0
0
0
0
0
0
0
0
0
0
0
0
0
0
0
0
0
0
0
0
0
0
0
0
0
0
0
0
0
0
0
0
0
0
0
0
0
0
0
0
0
0
0
0
0
0
0
0
0
0
0
0
0
0
0
0
0
0
0
0
0
0
0
0
0
0
0
0
0
0
0
0
0
0
0
0
0
0
0
0
0
0
0
0
0
0
0
0
0
0
0
0
0
0
0
0
0
0
0
0
0
0
0
0
0
0
0
0
0
0
0
0
0
0
0
0
0
0
0
0
0
0
0
0
0
0
0
0
0
0
0
0
0
0
0
0
0
0
0
0
0
255
0
0
255
0
0
255
0
0
0
0
0
255
0
0
0
0
0
255
0
0
0
0
0
255
0
0
255
0
0
255
0
0
0
0
0
0
0
0
255
0
0
255
0
0
0
0
0
0
0
0
0
0
0
0
0
0
0
0
0
0
0
0
0
0
0
0
0
0
0
0
0
0
0
0
0
0
0
0
0
0
0
0
0
0
0
0
0
0
0
0
0
0
0
0
0
0
0
0
0
0
0
0
0
0
0
0
0
0
0
0
0
0
0
0
0
0
0
0
0
0
0
0
0
0
0
0
0
0
0
0
0
0
0
0
0
0
0
0
0
0
0
0
0
0
0
0
0
0
0
0
0
0
0
0
0
0
0
0
0
0
0
0
0
0
0
0
0
0
0
0
0
0
0
0
0
0
0
0
0
0
0
0
0
0
0
0
0
0
0
0
0
0
0
0
0
0
0
0
0
0
0
0
0
255
0
0
0
0
0
255
0
0
0
0
0
0
0
0
0
0
0
0
0
0
0
0
0
0
0
0
0
0
0
255
0
0
0
0
0
0
0
0
0
0
0
0
0
0
0
0
0
0
0
0
0
0
0
0
0
0
0
0
0
0
0
0
0
0
0
0
0
0
0
0
0
0
0
0
0
0
0
0
0
0
0
0
0
0
0
0
0
0
0
0
0
0
0
0
0
0
0
0
0
0
0
0
0
0
0
0
0
0
0
0
0
0
0
0
0
0
0
0
0
0
0
0
0
0
0
0
0
0
0
0
0
0
0
0
0
0
0
0
0
0
0
0
0
0
0
0
0
0
0
0
0
0
0
0
0
0
0
0
0
0
0
0
0
0
0
0
0
0
0
0
0
0
0
0
0
0
0
0
0
0
0
0
0
0
0
0
0
0
0
0
0
255
0
0
255
0
0
255
0
0
0
0
0
0
0
0
0
0
0
0
0
0
0
0
0
255
0
0
255
0
0
0
0
0
0
0
0
0
0
0
0
0
0
0
0
0
0
0
0
0
0
0
0
0
0
0
0
0
0
0
0
0
0
0
0
0
0
0
0
0
0
0
0
0
0
0
0
0
0
0
0
0
0
0
0
0
0
0
0
0
0
0
0
0
0
0
0
0
0
0
0
0
0
0
0
0
0
0
0
0
0
0
0
0
0
0
0
0
0
0
0
0
0
0
0
0
0
0
0
0
0
0
0
0
0
0
0
0
0
0
0
0
0
0
0
0
0
0
0
0
0
0
0
0
0
0
0
0
0
0
0
0
0
0
0
0
0
0
0
0
0
0
0
0
0
0
0
0
0
0
0
0
0
0
0
0
0
0
0
0
0
0
0
0
0
0
0
0
0
0
0
0
0
0
0
0
0
0
0
0
0
0
0
0
0
0
0
0
0
0
0
0
0
0
0
0
0
0
0
0
0
0
0
0
0
0
0
0
0
0
0
0
0
0
0
0
0
0
0
0
0
0
0
0
0
0
0
0
0
0
0
0
0
0
0
0
0
0
0
0
0
0
0
0
0
0
0
0
0
0
0
0
0
0
0
0
0
0
0
0
0
0
0
0
0
0
0
0
0
0
0
0
0
0
0
0
0
0
0
0
0
0
0
0
0
0
0
0
0
0
0
0
0
0
0
0
0
0
0
0
0
0
0
0
0
0
0
0
0
0
0
0
0
0
0
0
0
0
0
0
0
0
0
0
0
0
0
0
0
0
0
0
0
0
0
0
0
0
0
0
0
0
0
0
0
0
0
0
0
0
0
0
0
0
0
0
0
0
0
0
0
0
0
0
0
0
0
0
0
0
0
0
0
0
0
0
0
0
0
0
0
0
0
0
0
0
0
0
0
0
0
0
0
0
0
0
0
0
0
0
0
0
0
0
0
0
0
0
0
0
0
0
0
0
0
0
0
0
0
0
0
0
0
0
0
0
0
0
0
0
0
0
0
0
0
0
0
0
0
0
0
0
0
0
0
0
0
0
0
0
0
0
0
0
0
0
0
0
0
0
0
0
0
0
0
0
0
0
0
0
0
0
0
0
0
0
0
0
0
0
0
0
0
0
0
0
0
0
0
0
0
0
0
0
0
0
0
0
0
0
0
0
0
0
0
0
0
0
0
0
0
0
0
0
0
0
0
0
0
0
0
0
0
0
0
0
0
0
0
0
0
0
0
0
0
0
0
0
0
0
0
0
0
0
0
255
0
0
0
0
0
255
0
0
0
0
0
0
0
0
0
0
0
0
0
0
0
0
0
0
0
255
0
0
0
0
0
255
0
0
0
0
0
0
0
0
0
0
0
0
0
0
0
0
0
0
0
0
0
0
0
0
0
0
0
0
0
0
0
0
0
0
0
0
0
0
0
0
0
0
0
0
0
0
0
0
0
0
0
0
0
0
0
0
0
0
0
0
0
0
0
0
0
0
0
0
0
0
0
0
0
0
0
0
0
0
0
0
0
0
0
0
0
0
0
0
0
0
0
0
0
0
0
0
0
0
0
0
0
0
0
0
0
0
0
0
0
0
0
0
0
0
0
0
0
0
0
0
0
0
0
0
0
0
0
0
0
0
0
0
255
255
255
255
255
255
0
0
0
0
0
0
0
0
0
0
0
0
0
0
0
0
0
0
0
0
0
255
0
0
0
0
0
255
0
0
0
0
0
0
0
0
0
0
0
0
0
0
0
0
0
0
0
255
0
0
0
0
0
255
0
0
0
0
0
0
0
0
0
0
0
0
0
0
0
0
0
0
0
0
0
0
0
0
0
0
0
0
0
0
0
0
0
0
0
0
0
0
0
0
0
0
0
0
0
0
0
0
0
0
0
0
0
0
0
0
0
0
0
0
0
0
0
0
0
0
0
0
0
0
0
0
0
0
0
0
0
0
0
0
0
0
0
0
0
0
0
0
0
0
0
0
0
0
0
0
0
0
0
0
0
0
0
0
0
0
0
0
0
0
0
0
0
0
0
0
0
0
0
0
0
0
0
0
0
0
0
0
0
0
0
0
255
255
255
0
0
0
255
255
255
0
0
0
0
0
0
0
0
0
255
0
0
0
0
0
0
0
0
255
0
0
0
0
0
255
0
0
0
0
0
0
0
0
0
0
0
0
0
0
0
0
0
0
0
255
0
0
0
0
0
255
0
0
0
0
0
0
0
0
0
0
0
0
0
0
0
0
0
0
0
0
0
0
0
0
0
0
0
0
0
0
0
0
0
0
0
0
0
0
0
0
0
0
0
0
0
0
0
0
0
0
0
0
0
0
0
0
0
0
0
0
0
0
0
0
0
0
0
0
0
0
0
0
0
0
0
0
0
0
0
0
0
0
0
0
0
0
0
0
0
0
0
0
0
0
0
0
0
0
0
0
0
0
0
0
0
0
0
0
0
0
0
0
0
0
0
0
0
0
0
0
0
0
0
0
0
0
0
0
0
0
0
0
0
0
0
0
0
0
255
255
255
0
0
0
0
0
0
255
0
0
255
0
0
255
0
0
0
0
0
255
0
0
0
0
0
255
0
0
0
0
0
0
0
255
0
0
255
0
0
255
0
0
0
0
0
255
0
0
0
0
0
255
0
0
0
0
0
0
0
0
0
0
0
0
0
0
0
0
0
0
0
0
0
0
0
0
0
0
0
0
0
0
0
0
0
0
0
0
0
0
0
0
0
0
0
0
0
0
0
0
0
0
0
0
0
0
0
0
0
0
0
0
0
0
0
0
0
0
0
0
0
0
0
0
0
0
0
0
0
0
0
0
0
0
0
0
0
0
0
0
0
0
0
0
0
0
0
0
0
0
0
0
0
0
0
0
0
0
0
0
0
0
0
0
0
0
0
0
0
0
0
0
0
0
0
0
0
0
0
0
0
0
0
0
0
0
0
255
255
255
0
0
0
0
0
0
0
0
0
0
0
0
255
0
0
0
0
0
0
0
0
0
0
0
0
0
0
0
0
0
0
0
0
0
0
0
0
0
0
0
0
0
0
0
0
0
0
0
0
0
0
0
0
0
0
0
0
0
0
0
0
0
0
0
0
0
0
0
0
0
0
0
0
0
0
0
0
0
0
0
0
0
0
0
0
0
0
0
0
0
0
0
0
0
0
0
0
0
0
0
0
0
0
0
0
0
0
0
0
0
0
0
0
0
0
0
0
0
0
0
0
0
0
0
0
0
0
0
0
0
0
0
0
0
0
0
0
0
0
0
0
0
0
0
0
0
0
0
0
0
0
0
0
0
0
0
0
0
0
0
0
0
0
0
0
0
0
0
0
0
0
0
0
0
0
0
0
0
0
0
0
0
0
0
0
0
0
0
0
0
0
0
0
0
0
0
0
0
0
0
0
0
0
0
0
0
0
0
0
0
0
0
0
255
0
0
0
0
0
255
0
0
0
0
0
0
0
0
0
0
0
0
0
0
0
0
0
0
0
255
0
0
0
0
0
255
0
0
0
0
0
0
0
0
0
0
0
0
0
0
0
0
0
0
0
0
0
0
0
0
0
0
0
0
0
0
0
0
0
0
0
0
0
0
0
0
0
0
0
0
0
0
0
0
0
0
0
0
0
0
0
0
0
0
0
0
0
0
0
0
0
0
0
0
0
0
0
0
0
0
0
0
0
0
0
0
0
0
0
0
0
0
0
0
0
0
0
0
0
0
0
0
0
0
0
0
0
0
0
0
0
0
0
0
0
0
0
0
0
0
0
0
0
0
0
0
0
0
0
0
0
0
0
0
0
0
0
0
0
0
0
255
255
255
0
0
0
0
0
0
0
0
0
0
0
0
0
0
0
0
0
0
0
0
0
0
0
0
0
0
0
0
0
0
0
0
0
0
0
0
0
0
0
0
0
0
0
0
0
0
0
0
0
0
0
0
0
0
0
0
0
0
0
0
0
0
0
0
0
0
0
0
0
0
0
0
0
0
0
0
0
0
0
0
0
0
0
0
0
0
0
0
0
0
0
0
0
0
0
0
0
0
0
0
0
0
0
0
0
0
0
0
0
0
0
0
0
0
0
0
0
0
0
0
0
0
0
0
0
0
0
0
0
0
0
0
0
0
0
0
0
0
0
0
0
0
0
0
0
0
0
0
0
0
0
0
0
0
0
0
0
0
0
0
0
0
0
0
0
0
0
0
0
0
0
0
0
0
0
0
0
0
0
0
0
0
0
0
0
0
0
0
0
0
0
0
0
0
0
0
0
0
0
0
0
