P3
# CREATOR: GIMP PNM Filter Version 1.1
64 32
255
0
0
0
0
0
0
255
255
255
0
0
0
0
0
0
0
0
0
0
0
0
0
0
0
0
0
0
0
0
0
0
0
0
255
245
0
0
0
0
0
0
0
0
0
0
0
0
0
0
0
0
255
255
255
0
0
0
0
0
0
0
0
0
0
0
0
0
0
0
0
0
0
255
245
0
255
245
0
0
0
0
0
0
0
0
0
0
0
0
0
0
0
0
0
0
0
0
0
0
0
0
0
0
0
0
0
0
0
0
0
0
0
0
0
0
0
0
0
0
0
0
0
0
0
0
0
0
0
0
0
0
0
99
99
99
99
99
99
0
0
0
0
0
0
99
99
99
99
99
99
99
99
99
99
99
99
0
0
0
0
0
0
99
99
99
0
0
0
0
0
0
0
0
0
0
0
0
0
0
0
0
0
0
0
0
0
0
0
0
0
0
0
0
0
0
0
0
0
0
0
0
0
0
0
0
0
0
0
0
0
0
0
0
0
0
0
0
0
0
255
245
0
0
0
0
0
0
0
0
0
0
255
245
0
0
0
0
0
0
0
255
255
255
204
204
204
0
0
0
0
0
0
0
0
0
0
0
0
0
0
0
0
0
0
255
245
0
255
245
0
0
0
0
0
0
0
0
0
0
0
0
0
0
0
0
0
0
0
0
0
0
0
0
0
0
0
0
0
0
0
0
0
0
0
0
0
0
0
0
0
0
0
0
0
0
0
0
0
0
0
0
0
0
0
0
0
0
0
0
0
0
0
0
0
0
0
99
99
99
99
99
99
99
99
99
99
99
99
99
99
99
99
99
99
99
99
99
0
0
0
0
0
0
0
0
0
0
0
0
0
0
0
0
0
0
0
0
0
0
0
0
0
0
0
0
0
0
0
0
0
0
0
0
0
0
0
204
204
204
255
255
255
0
0
0
0
0
0
0
0
0
0
0
0
195
188
0
255
245
0
195
188
0
0
0
0
0
0
0
0
0
0
0
0
0
0
0
0
0
0
0
204
204
204
204
204
204
99
99
99
0
0
0
0
0
0
0
0
0
0
0
0
0
0
0
204
204
204
204
204
204
99
99
99
0
0
0
0
0
0
0
0
0
0
0
0
0
0
0
0
0
0
0
0
0
0
0
0
0
0
0
0
0
0
99
99
99
99
99
99
99
99
99
99
99
99
99
99
99
0
0
0
0
0
0
0
0
0
0
0
0
0
0
0
0
0
0
0
0
0
0
0
0
99
99
99
99
99
99
0
0
0
0
0
0
0
0
0
0
0
0
204
204
204
204
204
204
99
99
99
0
0
0
0
0
0
255
255
255
0
0
0
0
0
0
0
0
0
0
0
0
204
204
204
255
255
255
0
0
0
255
245
0
0
0
0
255
245
0
255
245
0
255
245
0
0
0
0
255
245
0
0
0
0
0
0
0
204
204
204
204
204
204
99
99
99
204
204
204
204
204
204
99
99
99
0
0
0
0
0
0
204
204
204
204
204
204
99
99
99
204
204
204
204
204
204
99
99
99
0
0
0
0
0
0
0
0
0
0
0
0
0
0
0
0
0
0
0
0
0
0
0
0
0
0
0
0
0
0
0
0
0
0
0
0
0
0
0
0
0
0
0
0
0
0
0
0
0
0
0
99
99
99
99
99
99
99
99
99
99
99
99
99
99
99
99
99
99
99
99
99
0
0
0
0
0
0
204
204
204
204
204
204
99
99
99
204
204
204
204
204
204
99
99
99
0
0
0
0
0
0
0
0
0
0
0
0
0
0
0
0
0
0
255
255
255
255
255
255
0
0
0
0
0
0
0
0
0
195
188
0
255
245
0
195
188
0
0
0
0
0
0
0
0
0
0
204
204
204
204
204
204
204
204
204
204
204
204
99
99
99
204
204
204
204
204
204
0
0
0
204
204
204
204
204
204
204
204
204
204
204
204
99
99
99
204
204
204
204
204
204
0
0
0
0
0
0
0
0
0
0
0
0
0
0
0
0
0
0
0
0
0
0
0
0
0
0
0
99
99
99
0
0
0
0
0
0
99
99
99
99
99
99
99
99
99
99
99
99
0
0
0
0
0
0
99
99
99
99
99
99
0
0
0
0
0
0
0
0
0
0
0
0
0
0
0
204
204
204
204
204
204
204
204
204
204
204
204
99
99
99
204
204
204
204
204
204
0
0
0
0
0
0
0
0
0
255
255
255
99
99
99
204
204
204
255
255
255
255
255
255
0
0
0
0
0
0
255
245
0
0
0
0
0
0
0
0
0
0
255
245
0
0
0
0
0
0
0
204
204
204
204
204
204
204
204
204
204
204
204
204
204
204
206
206
196
204
204
202
0
0
0
204
204
204
204
204
204
204
204
204
204
204
204
204
204
204
206
206
196
204
204
202
0
0
0
0
0
0
0
0
0
0
0
0
0
0
0
0
0
0
0
0
0
0
0
0
0
0
0
0
0
0
0
0
0
0
0
0
0
0
0
0
0
0
0
0
0
0
0
0
0
0
0
99
99
99
99
99
99
99
99
99
99
99
99
99
99
99
99
99
99
99
99
99
0
0
0
204
204
204
204
204
204
204
204
204
204
204
204
204
204
204
206
206
196
204
204
202
0
0
0
0
0
0
0
0
0
0
0
0
255
255
255
255
255
255
255
255
255
0
0
0
0
0
0
0
0
0
0
0
0
0
0
0
255
245
0
0
0
0
0
0
0
0
0
0
0
0
0
0
0
0
204
204
204
204
204
204
204
204
204
204
204
204
204
204
204
99
99
99
0
0
0
0
0
0
204
204
204
204
204
204
204
204
204
204
204
204
204
204
204
99
99
99
0
0
0
0
0
0
0
0
0
0
0
0
0
0
0
0
0
0
0
0
0
0
0
0
0
0
0
0
0
0
99
99
99
99
99
99
99
99
99
99
99
99
0
0
0
0
0
0
0
0
0
99
99
99
0
0
0
0
0
0
0
0
0
0
0
0
99
99
99
99
99
99
0
0
0
0
0
0
204
204
204
204
204
204
204
204
204
204
204
204
204
204
204
99
99
99
0
0
0
0
0
0
0
0
0
0
0
0
0
0
0
0
0
0
0
0
0
0
0
0
0
0
0
0
0
0
0
0
0
0
0
0
0
0
0
0
0
0
0
0
0
0
0
0
0
0
0
0
0
0
0
0
0
0
0
0
0
0
0
0
0
0
0
0
0
0
0
0
0
0
0
0
0
0
0
0
0
0
0
0
0
0
0
0
0
0
0
0
0
0
0
0
0
0
0
0
0
0
0
0
0
0
0
0
0
0
0
0
0
0
0
0
0
0
0
0
0
0
0
0
0
0
0
0
0
0
0
0
0
0
0
0
0
0
0
0
0
0
0
0
0
0
0
0
0
0
0
0
0
0
0
0
0
0
0
0
0
0
0
0
0
0
0
0
0
0
0
0
0
0
0
0
0
0
0
0
0
0
0
0
0
0
0
0
0
0
0
0
0
0
0
0
0
0
0
0
0
99
99
99
204
204
204
204
204
204
99
99
99
0
0
0
0
0
0
0
0
0
0
0
0
99
99
99
204
204
204
204
204
204
99
99
99
0
0
0
0
0
0
255
245
0
255
245
0
0
0
0
0
0
0
0
0
0
0
0
0
0
0
0
0
0
0
0
0
0
0
0
0
99
99
99
204
204
204
204
204
204
99
99
99
0
0
0
0
0
0
0
0
0
0
0
0
99
99
99
204
204
204
204
204
204
99
99
99
0
0
0
0
0
0
0
0
0
0
0
0
99
99
99
204
204
204
204
204
204
99
99
99
0
0
0
0
0
0
255
245
0
255
245
0
0
0
0
0
0
0
0
0
0
0
0
0
0
0
0
0
0
0
0
0
0
0
0
0
99
99
99
204
204
204
204
204
204
99
99
99
0
0
0
0
0
0
0
0
0
204
204
204
204
204
204
0
0
0
0
0
0
204
204
204
99
99
99
0
0
0
0
0
0
204
204
204
204
204
204
0
0
0
0
0
0
204
204
204
99
99
99
0
0
0
255
245
0
255
245
0
99
99
99
204
204
204
204
204
204
99
99
99
0
0
0
0
0
0
0
0
0
204
204
204
204
204
204
0
0
0
0
0
0
204
204
204
99
99
99
0
0
0
0
0
0
204
204
204
204
204
204
0
0
0
0
0
0
204
204
204
99
99
99
0
0
0
0
0
0
204
204
204
204
204
204
0
0
0
0
0
0
204
204
204
99
99
99
0
0
0
255
245
0
255
245
0
99
99
99
204
204
204
204
204
204
99
99
99
0
0
0
0
0
0
0
0
0
204
204
204
204
204
204
0
0
0
0
0
0
204
204
204
99
99
99
0
0
0
204
204
204
0
0
0
0
0
0
99
99
99
0
0
0
0
0
0
204
204
204
0
0
0
204
204
204
0
0
0
0
0
0
99
99
99
0
0
0
0
0
0
204
204
204
0
0
0
0
0
0
204
204
204
204
204
204
0
0
0
0
0
0
204
204
204
99
99
99
0
0
0
204
204
204
0
0
0
0
0
0
99
99
99
0
0
0
0
0
0
204
204
204
0
0
0
204
204
204
0
0
0
0
0
0
99
99
99
0
0
0
0
0
0
204
204
204
0
0
0
204
204
204
0
0
0
0
0
0
99
99
99
0
0
0
0
0
0
204
204
204
0
0
0
0
0
0
204
204
204
204
204
204
0
0
0
0
0
0
204
204
204
99
99
99
0
0
0
204
204
204
0
0
0
0
0
0
99
99
99
0
0
0
0
0
0
204
204
204
0
0
0
204
204
204
0
0
0
0
0
0
0
0
0
0
0
0
0
0
0
204
204
204
0
0
0
204
204
204
0
0
0
0
0
0
0
0
0
0
0
0
0
0
0
204
204
204
0
0
0
204
204
204
0
0
0
0
0
0
99
99
99
0
0
0
0
0
0
204
204
204
0
0
0
204
204
204
0
0
0
0
0
0
0
0
0
0
0
0
0
0
0
204
204
204
0
0
0
204
204
204
0
0
0
0
0
0
0
0
0
0
0
0
0
0
0
204
204
204
0
0
0
204
204
204
0
0
0
0
0
0
0
0
0
0
0
0
0
0
0
204
204
204
0
0
0
204
204
204
0
0
0
0
0
0
99
99
99
0
0
0
0
0
0
204
204
204
0
0
0
204
204
204
0
0
0
0
0
0
0
0
0
0
0
0
0
0
0
204
204
204
0
0
0
0
0
0
204
204
204
204
204
204
204
204
204
204
204
204
204
204
204
99
99
99
0
0
0
0
0
0
204
204
204
204
204
204
204
204
204
204
204
204
204
204
204
99
99
99
0
0
0
204
204
204
0
0
0
0
0
0
0
0
0
0
0
0
0
0
0
204
204
204
0
0
0
0
0
0
204
204
204
204
204
204
204
204
204
204
204
204
204
204
204
99
99
99
0
0
0
0
0
0
204
204
204
204
204
204
204
204
204
204
204
204
204
204
204
99
99
99
0
0
0
0
0
0
204
204
204
204
204
204
204
204
204
204
204
204
204
204
204
99
99
99
0
0
0
204
204
204
0
0
0
0
0
0
0
0
0
0
0
0
0
0
0
204
204
204
0
0
0
0
0
0
204
204
204
204
204
204
204
204
204
204
204
204
204
204
204
99
99
99
0
0
0
0
0
0
0
0
0
0
0
0
0
0
0
0
0
0
0
0
0
0
0
0
0
0
0
0
0
0
0
0
0
0
0
0
0
0
0
0
212
255
0
0
0
0
0
0
0
0
0
0
0
0
204
204
204
204
204
204
204
204
204
204
204
204
204
204
204
99
99
99
0
0
0
0
0
0
0
0
0
0
0
0
0
0
0
0
0
0
0
212
255
0
0
0
0
0
0
0
0
0
0
0
0
0
0
0
0
0
0
0
212
255
0
0
0
0
0
0
0
0
0
0
0
0
0
0
0
0
212
255
0
0
0
0
0
0
0
212
255
0
0
0
0
0
0
0
0
0
204
204
204
204
204
204
204
204
204
204
204
204
204
204
204
99
99
99
0
0
0
0
0
0
0
0
0
0
212
255
0
0
0
0
0
0
0
212
255
0
0
0
0
0
0
0
0
0
0
0
0
0
0
0
0
0
0
0
0
0
0
0
0
0
0
0
0
0
0
0
0
0
0
0
0
0
0
0
0
212
255
0
0
0
0
0
0
0
0
0
0
0
0
0
0
0
0
0
0
0
0
0
0
0
0
0
212
255
0
0
0
0
0
0
0
0
0
0
0
0
0
0
0
0
212
255
0
0
0
0
0
0
0
0
0
0
0
0
0
0
0
0
0
0
0
0
0
0
0
0
0
212
255
0
0
0
0
0
0
0
0
0
0
0
0
0
0
0
0
212
255
0
0
0
0
0
0
0
212
255
0
0
0
0
0
0
0
0
0
0
0
0
0
0
0
0
212
255
0
0
0
0
0
0
0
212
255
0
0
0
0
0
0
0
0
0
0
212
255
0
0
0
0
0
0
0
212
255
0
0
0
0
0
0
0
0
0
0
0
0
0
0
0
0
0
0
0
0
0
0
0
0
0
0
0
0
0
0
0
0
0
0
0
0
0
0
0
0
212
255
0
0
0
0
0
0
0
0
0
0
0
0
0
0
0
0
0
0
0
0
0
0
0
0
0
212
255
0
0
0
0
0
0
0
0
0
0
0
0
0
0
0
0
0
0
0
0
0
0
0
0
0
212
255
0
0
0
0
0
0
0
0
0
0
0
0
0
0
0
0
212
255
0
0
0
0
0
0
0
0
0
0
0
0
0
0
0
0
212
255
0
0
0
0
0
0
0
212
255
0
0
0
0
0
0
0
0
0
0
0
0
0
0
0
0
212
255
0
0
0
0
0
0
0
212
255
0
0
0
0
0
0
0
0
0
0
212
255
0
0
0
0
0
0
0
212
255
0
0
0
0
0
0
0
0
0
0
0
0
0
0
0
0
0
0
99
99
99
204
204
204
204
204
204
99
99
99
0
0
0
0
0
0
255
245
0
255
245
0
0
0
0
0
0
0
0
0
0
0
0
0
0
0
0
0
0
0
0
0
0
0
0
0
99
99
99
204
204
204
204
204
204
99
99
99
0
0
0
0
0
0
0
0
0
0
0
0
99
99
99
204
204
204
204
204
204
99
99
99
0
0
0
0
0
0
0
0
0
0
0
0
99
99
99
204
204
204
204
204
204
99
99
99
0
0
0
0
0
0
0
0
0
0
0
0
99
99
99
204
204
204
204
204
204
99
99
99
0
0
0
0
0
0
0
0
0
0
0
0
99
99
99
204
204
204
204
204
204
99
99
99
0
0
0
0
0
0
255
245
0
255
245
0
0
0
0
0
0
0
0
0
0
0
0
0
0
0
0
0
0
0
0
0
0
204
204
204
204
204
204
0
0
0
0
0
0
204
204
204
99
99
99
0
0
0
255
245
0
255
245
0
99
99
99
204
204
204
204
204
204
99
99
99
0
0
0
0
0
0
0
0
0
204
204
204
204
204
204
0
0
0
0
0
0
204
204
204
99
99
99
0
0
0
0
0
0
204
204
204
204
204
204
0
0
0
0
0
0
204
204
204
99
99
99
0
0
0
0
0
0
204
204
204
204
204
204
0
0
0
0
0
0
204
204
204
99
99
99
0
0
0
0
0
0
204
204
204
204
204
204
0
0
0
0
0
0
204
204
204
99
99
99
0
0
0
0
0
0
204
204
204
204
204
204
0
0
0
0
0
0
204
204
204
99
99
99
0
0
0
255
245
0
255
245
0
99
99
99
204
204
204
204
204
204
99
99
99
0
0
0
0
0
0
204
204
204
0
0
0
0
0
0
99
99
99
0
0
0
0
0
0
204
204
204
0
0
0
0
0
0
204
204
204
204
204
204
0
0
0
0
0
0
204
204
204
99
99
99
0
0
0
204
204
204
0
0
0
0
0
0
99
99
99
0
0
0
0
0
0
204
204
204
0
0
0
204
204
204
0
0
0
0
0
0
99
99
99
0
0
0
0
0
0
204
204
204
0
0
0
204
204
204
0
0
0
0
0
0
99
99
99
0
0
0
0
0
0
204
204
204
0
0
0
204
204
204
0
0
0
0
0
0
99
99
99
0
0
0
0
0
0
204
204
204
0
0
0
204
204
204
0
0
0
0
0
0
99
99
99
0
0
0
0
0
0
204
204
204
0
0
0
0
0
0
204
204
204
204
204
204
0
0
0
0
0
0
204
204
204
99
99
99
0
0
0
204
204
204
0
0
0
0
0
0
0
0
0
0
0
0
0
0
0
204
204
204
0
0
0
204
204
204
0
0
0
0
0
0
99
99
99
0
0
0
0
0
0
204
204
204
0
0
0
204
204
204
0
0
0
0
0
0
0
0
0
0
0
0
0
0
0
204
204
204
0
0
0
204
204
204
0
0
0
0
0
0
0
0
0
0
0
0
0
0
0
204
204
204
0
0
0
204
204
204
0
0
0
0
0
0
0
0
0
0
0
0
0
0
0
204
204
204
0
0
0
204
204
204
0
0
0
0
0
0
0
0
0
0
0
0
0
0
0
204
204
204
0
0
0
204
204
204
0
0
0
0
0
0
0
0
0
0
0
0
0
0
0
204
204
204
0
0
0
204
204
204
0
0
0
0
0
0
99
99
99
0
0
0
0
0
0
204
204
204
0
0
0
0
0
0
204
204
204
204
204
204
204
204
204
204
204
204
204
204
204
99
99
99
0
0
0
204
204
204
0
0
0
0
0
0
0
0
0
0
0
0
0
0
0
204
204
204
0
0
0
0
0
0
204
204
204
204
204
204
204
204
204
204
204
204
204
204
204
99
99
99
0
0
0
0
0
0
204
204
204
204
204
204
204
204
204
204
204
204
204
204
204
99
99
99
0
0
0
0
0
0
204
204
204
204
204
204
204
204
204
204
204
204
204
204
204
99
99
99
0
0
0
0
0
0
204
204
204
204
204
204
204
204
204
204
204
204
204
204
204
99
99
99
0
0
0
0
0
0
204
204
204
204
204
204
204
204
204
204
204
204
204
204
204
99
99
99
0
0
0
204
204
204
0
0
0
0
0
0
0
0
0
0
0
0
0
0
0
204
204
204
0
0
0
0
0
0
0
0
0
0
0
0
0
0
0
0
212
255
0
0
0
0
0
0
0
0
0
0
0
0
204
204
204
204
204
204
204
204
204
204
204
204
204
204
204
99
99
99
0
0
0
0
0
0
0
0
0
0
0
0
0
0
0
0
212
255
0
0
0
0
0
0
0
0
0
0
0
0
0
0
0
0
0
0
0
0
0
255
255
255
255
255
255
0
0
0
0
0
0
0
0
0
0
0
0
0
0
0
0
0
0
255
255
255
255
255
255
0
0
0
0
0
0
0
0
0
0
0
0
0
0
0
0
0
0
255
255
255
255
255
255
0
0
0
0
0
0
0
0
0
0
0
0
0
0
0
0
0
0
0
0
0
255
255
255
0
0
0
0
0
0
0
0
0
204
204
204
204
204
204
204
204
204
204
204
204
204
204
204
99
99
99
0
0
0
0
0
0
255
255
255
0
0
0
0
212
255
0
0
0
0
0
0
0
0
0
0
0
0
0
0
0
0
0
0
0
0
0
0
0
0
0
212
255
0
0
0
255
255
255
0
0
0
0
0
0
255
255
255
0
0
0
0
212
255
0
0
0
0
0
0
0
0
0
0
0
0
0
0
0
255
255
255
255
255
255
0
0
0
255
255
255
255
255
255
0
0
0
0
0
0
0
0
0
255
255
255
255
255
255
0
0
0
255
255
255
255
255
255
0
0
0
0
0
0
0
0
0
255
255
255
255
255
255
0
0
0
255
255
255
255
255
255
0
0
0
0
0
0
0
0
0
0
0
0
0
0
0
255
255
255
0
0
0
0
0
0
0
0
0
0
0
0
0
0
0
0
0
0
0
0
0
255
255
255
0
0
0
0
0
0
0
0
0
0
0
0
0
0
0
0
0
0
0
212
255
0
0
0
0
0
0
255
255
255
0
0
0
0
0
0
0
0
0
255
255
255
0
0
0
0
212
255
0
0
0
0
0
0
0
0
0
0
0
0
0
0
0
0
0
0
0
212
255
0
0
0
0
0
0
255
255
255
0
0
0
0
0
0
0
0
0
255
255
255
255
255
255
0
0
0
0
0
0
0
0
0
0
0
0
0
0
0
0
0
0
255
255
255
255
255
255
0
0
0
0
0
0
0
0
0
0
0
0
0
0
0
0
0
0
255
255
255
255
255
255
0
0
0
0
0
0
0
0
0
0
0
0
0
0
0
0
0
0
255
255
255
0
0
0
0
0
0
255
255
255
0
0
0
0
0
0
0
0
0
0
0
0
255
255
255
0
0
0
0
0
0
0
0
0
0
0
0
0
0
0
0
0
0
0
0
0
0
0
0
99
99
99
204
204
204
204
204
204
99
99
99
0
0
0
0
0
0
0
0
0
0
0
0
99
99
99
204
204
204
204
204
204
99
99
99
0
0
0
0
0
0
255
245
0
255
245
0
0
0
0
0
0
0
0
0
0
0
0
0
0
0
0
0
0
0
0
0
0
0
0
0
99
99
99
204
204
204
204
204
204
99
99
99
0
0
0
0
0
0
0
0
0
0
0
0
99
99
99
204
204
204
204
204
204
99
99
99
0
0
0
0
0
0
0
0
0
0
0
0
99
99
99
204
204
204
204
204
204
99
99
99
0
0
0
0
0
0
0
0
0
0
0
0
99
99
99
204
204
204
204
204
204
99
99
99
0
0
0
0
0
0
0
0
0
0
0
0
56
56
56
131
131
131
56
56
56
0
0
0
0
0
0
0
0
0
0
0
0
204
204
204
204
204
204
0
0
0
0
0
0
204
204
204
99
99
99
0
0
0
0
0
0
204
204
204
204
204
204
0
0
0
0
0
0
204
204
204
99
99
99
0
0
0
255
245
0
255
245
0
99
99
99
204
204
204
204
204
204
99
99
99
0
0
0
0
0
0
0
0
0
204
204
204
204
204
204
0
0
0
0
0
0
204
204
204
99
99
99
0
0
0
0
0
0
204
204
204
204
204
204
0
0
0
0
0
0
204
204
204
99
99
99
0
0
0
0
0
0
204
204
204
204
204
204
0
0
0
0
0
0
204
204
204
99
99
99
0
0
0
0
0
0
204
204
204
204
204
204
0
0
0
0
0
0
204
204
204
99
99
99
0
0
0
0
0
0
0
0
0
131
131
131
0
0
0
131
131
131
0
0
0
0
0
0
0
0
0
204
204
204
0
0
0
0
0
0
99
99
99
0
0
0
0
0
0
204
204
204
0
0
0
204
204
204
0
0
0
0
0
0
99
99
99
0
0
0
0
0
0
204
204
204
0
0
0
0
0
0
204
204
204
204
204
204
0
0
0
0
0
0
204
204
204
99
99
99
0
0
0
204
204
204
0
0
0
0
0
0
99
99
99
0
0
0
0
0
0
204
204
204
0
0
0
204
204
204
0
0
0
0
0
0
99
99
99
0
0
0
0
0
0
204
204
204
0
0
0
204
204
204
0
0
0
0
0
0
99
99
99
0
0
0
0
0
0
204
204
204
0
0
0
204
204
204
0
0
0
0
0
0
99
99
99
0
0
0
0
0
0
204
204
204
0
0
0
0
0
0
0
0
0
131
131
131
0
0
0
131
131
131
0
0
0
0
0
0
0
0
0
204
204
204
0
0
0
0
0
0
0
0
0
0
0
0
0
0
0
204
204
204
0
0
0
204
204
204
0
0
0
0
0
0
0
0
0
0
0
0
0
0
0
204
204
204
0
0
0
204
204
204
0
0
0
0
0
0
99
99
99
0
0
0
0
0
0
204
204
204
0
0
0
204
204
204
0
0
0
0
0
0
0
0
0
0
0
0
0
0
0
204
204
204
0
0
0
204
204
204
0
0
0
0
0
0
0
0
0
0
0
0
0
0
0
204
204
204
0
0
0
204
204
204
0
0
0
0
0
0
0
0
0
0
0
0
0
0
0
204
204
204
0
0
0
204
204
204
0
0
0
0
0
0
0
0
0
0
0
0
0
0
0
204
204
204
0
0
0
0
0
0
0
0
0
131
131
131
255
0
0
131
131
131
0
0
0
0
0
0
0
0
0
0
0
0
204
204
204
204
204
204
204
204
204
204
204
204
204
204
204
99
99
99
0
0
0
0
0
0
204
204
204
204
204
204
204
204
204
204
204
204
204
204
204
99
99
99
0
0
0
204
204
204
0
0
0
0
0
0
0
0
0
0
0
0
0
0
0
204
204
204
0
0
0
0
0
0
204
204
204
204
204
204
204
204
204
204
204
204
204
204
204
99
99
99
0
0
0
0
0
0
204
204
204
204
204
204
204
204
204
204
204
204
204
204
204
99
99
99
0
0
0
0
0
0
204
204
204
204
204
204
204
204
204
204
204
204
204
204
204
99
99
99
0
0
0
0
0
0
204
204
204
204
204
204
204
204
204
204
204
204
204
204
204
99
99
99
0
0
0
0
0
0
56
56
56
131
131
131
255
0
0
131
131
131
56
56
56
0
0
0
0
0
0
0
0
0
0
0
0
0
0
0
0
0
0
0
0
0
255
255
255
0
0
0
0
0
0
0
0
0
0
0
0
255
255
255
0
0
0
255
255
255
0
0
0
255
255
255
0
0
0
0
0
0
204
204
204
204
204
204
204
204
204
204
204
204
204
204
204
99
99
99
0
0
0
0
0
0
0
0
0
255
255
255
0
0
0
255
255
255
0
0
0
255
255
255
0
0
0
0
0
0
0
0
0
0
0
0
255
245
0
0
0
0
0
0
0
0
0
0
0
0
0
0
0
0
0
0
0
0
0
0
255
245
0
0
0
0
0
0
0
0
0
0
0
0
0
0
0
0
0
0
0
0
0
0
255
245
0
0
0
0
0
0
0
0
0
0
0
0
0
0
0
0
131
131
131
255
0
0
255
0
0
255
0
0
131
131
131
0
0
0
0
0
0
0
0
0
0
0
0
0
0
0
255
255
255
0
0
0
0
0
0
0
0
0
0
0
0
0
0
0
255
255
255
0
0
0
255
255
255
0
0
0
255
255
255
0
0
0
0
0
0
0
0
0
255
255
255
0
0
0
255
255
255
0
0
0
255
255
255
0
0
0
0
0
0
0
0
0
255
255
255
0
0
0
255
255
255
0
0
0
255
255
255
0
0
0
0
0
0
0
0
0
0
0
0
255
245
0
255
245
0
0
0
0
0
0
0
0
0
0
0
0
0
0
0
0
0
0
0
255
245
0
255
245
0
0
0
0
0
0
0
0
0
0
0
0
0
0
0
0
0
0
0
255
245
0
255
245
0
0
0
0
0
0
0
0
0
0
0
0
0
0
0
0
131
131
131
255
0
0
255
0
0
255
0
0
131
131
131
0
0
0
0
0
0
0
0
0
255
255
255
0
0
0
0
0
0
255
255
255
0
0
0
0
0
0
0
0
0
255
255
255
0
0
0
255
255
255
0
0
0
255
255
255
0
0
0
0
0
0
0
0
0
255
255
255
0
0
0
255
255
255
0
0
0
255
255
255
0
0
0
0
0
0
0
0
0
255
255
255
0
0
0
255
255
255
0
0
0
255
255
255
0
0
0
0
0
0
0
0
0
0
0
0
0
0
0
255
245
0
0
0
0
255
245
0
0
0
0
0
0
0
0
0
0
0
0
0
0
0
0
255
245
0
0
0
0
255
245
0
0
0
0
0
0
0
0
0
0
0
0
0
0
0
0
255
245
0
0
0
0
255
245
0
0
0
0
0
0
0
0
0
0
0
0
0
56
56
56
131
131
131
131
131
131
131
131
131
56
56
56
0
0
0
0
0
0
